<svg id="Layer_1" xmlns="http://www.w3.org/2000/svg" width="888" height="180" viewBox="0 0 888 180"><style>.st0{fill:#D8C0B6;} .st1{fill:#ED1C24;} .st2{fill:#55463D;} .st3{fill:#E2A6AA;} .st4{fill:#D88490;} .st5{fill:#1E1B17;} .st6{fill:#FFFFFF;} .st7{fill:#EFC2C7;}</style><path class="st0" d="M20.6 117.5s-5.6.7-3.7-4c1.9-4.8 5.2-3.1 5.2-3.1l1.6-5.1s-5.1-3.4-11.4 5 3.2 15 8 10.8l.3-3.6z"/><path d="M16.7 122.8c-1.7 0-3.4-.7-4.8-2-1.3-1.2-2.1-2.9-2.2-4.7-.1-2 .6-4.2 2.2-6.3 6.5-8.7 11.9-5.3 12.2-5.1l.3.2-1.9 6.1-.6-.3s-1-.5-2.1-.1c-1 .4-1.8 1.3-2.3 2.8-.4 1.1-.5 2 0 2.5.7.9 2.5.9 3.2.8l.7-.1-.4 4.4-.2.1c-1.3 1.2-2.7 1.7-4.1 1.7zM21 105c-1.9 0-4.9 1-8.3 5.5-3.1 4.2-2.1 7.7-.1 9.5 1.8 1.7 4.9 2.4 7.2.6l.2-2.6c-.9 0-2.6-.1-3.5-1.2-.7-.9-.7-2.1-.1-3.6.7-1.8 1.7-3 3-3.5.9-.4 1.8-.2 2.3-.1l1.3-4.2c-.3-.1-1.1-.4-2-.4z"/><path class="st0" d="M44.5 152.7s-4 4.2 1.2 6.9c3.9 2 6.8 0 6.8 0s3 2.7 4.8-.5c.5-.9 4.3 1.2 5.4.1 4.2-4.5-.5-7.6-.5-7.6l-17.7 1.1z"/><path d="M55.1 161.2c-1.1 0-2.1-.6-2.6-1-.9.5-3.6 1.6-7-.2-1.7-.9-2.7-2-2.9-3.4-.4-2.3 1.5-4.2 1.5-4.3l.1-.2 18.2-1.2.2.1c.1.1 2.2 1.5 2.4 3.8.2 1.5-.5 3.1-1.9 4.6-.8.8-2.3.5-3.7.1-.6-.1-1.4-.3-1.7-.3-.6 1-1.3 1.6-2.2 1.7-.1.3-.3.3-.4.3zm-2.5-2.3l.3.3s1.3 1.1 2.5.9c.6-.1 1.1-.5 1.5-1.2.4-.8 1.5-.5 2.8-.2.9.2 2.3.5 2.7.2 1.2-1.3 1.7-2.5 1.6-3.7-.2-1.6-1.4-2.7-1.8-3l-17.3 1.1c-.4.5-1.4 1.8-1.1 3.3.2 1 1 1.9 2.3 2.6 3.5 1.8 6.1.1 6.2 0l.3-.3z"/><path class="st0" d="M84.9 149.3s-3.8 7 1.4 8.6c5.1 1.6 5.7-2.4 5.7-2.4s4.8 3.2 5.5-2.4c3.3.9 11.3-4.3.9-9.8l-13.5 6z"/><path d="M88.4 158.9c-.7 0-1.5-.1-2.4-.4-1.3-.4-2.3-1.2-2.7-2.4-1.2-2.9 1-6.8 1.1-7l.1-.2 13.8-6.1.2.1c5.8 3.1 5.7 6 5.2 7.4-.9 2.2-3.8 3.6-5.9 3.4-.3 1.5-.9 2.5-1.9 3-1.3.6-2.8 0-3.7-.4-.2.6-.6 1.4-1.5 1.9-.6.5-1.4.7-2.3.7zm-3.2-9.2c-.4.7-1.8 3.8-.9 6 .3.9 1 1.4 2.1 1.8 1.6.5 2.9.5 3.7-.1 1-.7 1.2-1.9 1.2-1.9l.1-.8.7.5s1.9 1.3 3.3.7c.7-.3 1.2-1.2 1.4-2.7l.1-.6.6.2c1.6.4 4.5-.8 5.2-2.7.7-1.9-.8-4-4.4-6l-13.1 5.6z"/><path class="st0" d="M27.7 95.7s-14.1 27.2-3.3 39.6 19.2 20.4 29.5 18.5c10.3-1.9 9.8-4.4 26-4s43.8-19.3 27.3-49.3l-79.5-4.8z"/><path d="M50.9 154.5c-3.9 0-7.8-1.4-11.9-4.3-5.1-3.5-10.2-9.1-15-14.7-4.5-5.2-5.4-13.8-2.5-24.9 2.2-8.3 5.7-15.2 5.7-15.2l.2-.3 80.1 4.8.1.3c8.3 15.1 5.1 26.5.9 33.4-6.8 11.2-19.9 17-28.6 16.7-10.7-.3-14 .7-18.1 2-2 .6-4.3 1.3-7.7 2-1.1.1-2.2.2-3.2.2zM28.1 96.2c-1.5 3-13 27.4-3.2 38.7 4.8 5.5 9.9 11 14.8 14.5s9.4 4.7 14.2 3.8c3.4-.6 5.6-1.3 7.6-1.9 4.2-1.3 7.6-2.4 18.5-2.1 8.5.2 21.1-5.3 27.7-16.2 4-6.6 7.1-17.5-.8-32l-78.8-4.8z"/><path class="st1" d="M29.2 99.7s12.2 30.1 35.5 30.1 38.1-15.3 42.8-28.2l-78.3-1.9z"/><path d="M64.6 130.4c-9.7 0-19-5.3-26.9-15.3-5.9-7.5-9.1-15.1-9.1-15.2-.1-.2 0-.4.1-.5.1-.1.3-.2.5-.2l78.3 1.9c.2 0 .3.1.4.2.1.1.1.3.1.5-2.7 7.2-8 14.2-14.7 19.2-8.1 6.2-18.1 9.4-28.7 9.4zM30 100.3c.9 2.1 3.9 8.2 8.6 14.2 5.4 6.8 14.2 14.8 26 14.8 10.4 0 20.1-3.2 28-9.2 6.3-4.8 11.4-11.3 14-18L30 100.3z"/><path class="st0" d="M27.3 94.6s12.8 33.6 41.4 30.6 49.1-26.8 34.5-39.6l-4-26.1-13.3-10.7-51 12.1-9.8 12.4 2.2 21.3z"/><path d="M65.1 125.9c-5.3 0-10.4-1.3-15.2-3.8-4.7-2.4-9.1-6.1-13-10.8-6.8-8-10-16.5-10.1-16.6v-.2L24.6 73l10-12.8 51.4-12 13.7 11 4 26.1c4.4 4 5.9 9.4 4 15.2-1.8 5.8-6.7 11.5-13.6 16.2-7.3 4.9-16.3 8.1-25.4 9.1-1.2 0-2.4.1-3.6.1zM27.8 94.5c.3.8 3.5 8.7 9.9 16.2 3.9 4.6 8.2 8.1 12.7 10.5 5.7 3 11.8 4.1 18.2 3.4 9-1 17.8-4.1 25-8.9 6.7-4.5 11.4-10.1 13.2-15.6 1.7-5.5.4-10.4-3.9-14.2l-.1-.1-4-26.1-13-10.4-50.6 12-9.5 12.1 2.1 21.1z"/><path class="st2" d="M40.9 62.1s-7.4-8.8-10.2-6c-2.8 2.8-2.3 5.5-7.3 6.6-12.2 2.6.7 34-4 37 0 0 16.8-9.4 14.7-15.2-2.4-6.7.9-16.6.9-16.6l5.9-5.8z"/><path d="M19.5 100.2c-.2 0-.4-.1-.5-.3-.1-.2-.1-.6.2-.7 1.5-1 .6-6.9-.2-12.6-1.6-10.2-3.5-22.8 4.4-24.5 3.1-.6 3.9-1.9 4.9-3.6.5-.9 1.1-1.8 2.1-2.8.5-.5 1.1-.7 1.9-.7 1.5.1 3.5 1.2 5.9 3.5 1.8 1.6 3.1 3.2 3.1 3.3.2.2.2.5 0 .7l-5.6 5.6c-.4 1.1-3.1 10.1-.9 16.1 1 2.7-1.3 6.2-6.8 10.4-3.9 3.1-8.2 5.4-8.2 5.5-.1.1-.2.1-.3.1zm12.6-44c-.4 0-.7.1-1 .4-.9.9-1.4 1.8-2 2.6-1.1 1.7-2 3.3-5.6 4.1-6.9 1.5-5.1 13.5-3.6 23.3.8 5.5 1.4 9.5.9 11.7C26 95.2 35 88.7 33.6 84.7c-1-2.9-1.2-6.6-.5-11.1.5-3.3 1.4-5.8 1.4-5.9 0-.1.1-.1.1-.2l5.4-5.4c-1.5-1.9-5.4-5.8-7.9-5.9.1 0 .1 0 0 0zM46.9 134.6c-.1 0-.2 0-.2-.1-8.1-4.2-12.7-13.8-15-21.2-2.5-7.9-3.2-14.9-3.2-15 0-.3.2-.6.5-.6s.6.2.6.5 2.6 27.6 17.6 35.3c.3.1.4.5.2.7-.1.3-.3.4-.5.4zM100.7 124.5c-.1 0-.3-.1-.4-.2-.2-.2-.2-.6 0-.8 7.7-6.8 8.1-19.3 8.1-19.4 0-.3.3-.5.5-.5.3 0 .5.3.5.5 0 .5-.5 13.1-8.5 20.2.1.2-.1.2-.2.2z"/><path class="st0" d="M21.4 129.9s-4.9 8.2 0 11.8 7.7-1.1 7.7-1.1l-7.7-10.7z"/><path d="M25 143.6c-1.3 0-2.6-.5-3.9-1.5-2.2-1.6-2.9-4.3-2-7.8.6-2.5 1.8-4.6 1.9-4.7l.4-.7 8.4 11.6-.2.3c-.1.1-1.3 2.2-3.7 2.7-.3 0-.6.1-.9.1zm-3.5-12.7c-1 2-3.4 7.7.3 10.4 1.4 1 2.7 1.4 4 1.2 1.4-.3 2.4-1.4 2.8-1.9l-7.1-9.7z"/><path class="st2" d="M68.9 95.7s5.4 6 16.6 2.7-.8 14.5-7 17.9c-6.3 3.4-26.5 5.8-36.5-8.8-6.1-9 16.6-1.2 19.4-10.5"/><path d="M65.7 119.3c-8.3 0-18.1-2.7-24.1-11.6-1.1-1.6-1.4-2.8-.9-3.8.9-1.8 3.9-2 7.8-2.2 5.2-.3 11.2-.7 12.4-5 .1-.3.4-.4.7-.4.3.1.4.4.4.7-1.5 5-8.1 5.4-13.4 5.7-3.3.2-6.3.4-6.9 1.6-.3.6 0 1.5.8 2.7 9.7 14.3 29.5 12 35.8 8.7 2.2-1.2 5.4-4.4 7.9-8 2.6-3.7 3.9-7.1 3.3-8.4-.5-1.1-2.3-.8-3.8-.4-11.4 3.4-16.9-2.6-17.2-2.8-.2-.2-.2-.6 0-.8.2-.2.6-.2.8 0 .2.2 5.3 5.7 16.1 2.5 1.9-.6 4.3-.9 5.1 1 1.6 4-7 15.3-11.7 17.8-2.7 1.5-7.6 2.7-13.1 2.7z"/><path class="st2" d="M42.9 107.8s7.9 5.7 15.8 6c7.9.3 24.3.8 29.6-10.4l-45.4 4.4z"/><path class="st3" d="M79.2 109.4c7.9 9.8-6.6 13.8-16.9 12.9S58 111.2 58 111.2l4.7-7.8 6.1-1.5 10.4 7.5z"/><path d="M65.3 123c-1.1 0-2.1 0-3.1-.1-3-.3-5-1.4-5.9-3.2-1.8-3.5 1.1-8.5 1.3-8.7l4.8-8 6.6-1.6 10.6 7.8v.1c2.4 3 3 5.7 1.8 8-2.1 3.7-9.3 5.7-16.1 5.7zm-2.2-19.2l-4.6 7.6s-2.7 4.7-1.2 7.7c.8 1.5 2.5 2.4 5.1 2.6 7 .7 16-1.1 18.1-5.1 1-1.9.5-4.2-1.6-6.8l-10-7.4-5.8 1.4z"/><path class="st2" d="M82.9 85.6c-1.3-1.5-5.3-9.7.6-11.5s9.1-.6 10 1.2c2.5 4.9-1.1 9.2-1.9 9.7l-8.7.6z"/><path class="st4" d="M67.1 119.7c-2.1-6.1-.7-14-.7-14.3l1.1.2c0 .1-1.4 7.9.6 13.7l-1 .4z"/><path class="st2" d="M65.9 99.8s3.4 12.7-7.9 11.4c-11.2-1.2-16-3.8-16-3.8"/><path d="M59.5 111.8c-.5 0-1 0-1.5-.1-11.1-1.2-16-3.8-16.2-3.9-.3-.1-.4-.5-.2-.7.1-.3.5-.4.7-.2 0 0 4.9 2.6 15.8 3.8 2.9.3 5-.3 6.3-1.8 2.6-3.1 1.1-8.9 1.1-9-.1-.3.1-.6.4-.7.3-.1.6.1.7.4.1.3 1.7 6.5-1.3 10-1.5 1.5-3.3 2.2-5.8 2.2z"/><path class="st2" d="M49.3 88.4s4.8-13.3-8.4-11.8C32 77.6 39.6 88 39.6 88l9.7.4zM89.9 101.5c-9.1 10.9-21.9 11.9-23.5 1.9l-.6-5 3.6-2.2s5 5.2 16.1 2.2c7.8-2.2 4.4 3.1 4.4 3.1z"/><path d="M74.4 110.9c-.9 0-1.9-.1-2.7-.4-3.2-.9-5.3-3.4-5.8-7.1l-.6-5c0-.2.1-.4.2-.5l3.6-2.2c.2-.1.5-.1.7.1 0 0 5 5 15.6 2.1 2.9-.8 4.7-.7 5.5.3 1 1.3-.3 3.4-.5 3.6v.1c-4.8 5.6-10.9 9-16 9zm-8-12.3l.6 4.7c.5 3.3 2.3 5.4 5.1 6.2 5.1 1.4 12.1-1.9 17.5-8.3.3-.5.9-1.8.5-2.4-.2-.3-1-.8-4.3.1-9.9 2.7-15-1-16.3-2.1l-3.1 1.8z"/><circle cx="44.3" cy="85.6" r="5"/><path d="M44.3 91.1c-3.1 0-5.6-2.5-5.6-5.6 0-3.1 2.5-5.6 5.6-5.6 3.1 0 5.6 2.5 5.6 5.6 0 3.1-2.5 5.6-5.6 5.6zm0-10c-2.5 0-4.5 2-4.5 4.5s2 4.5 4.5 4.5 4.5-2 4.5-4.5-2-4.5-4.5-4.5z"/><circle cx="87.1" cy="81.9" r="5"/><path d="M87.1 87.5c-3.1 0-5.6-2.5-5.6-5.6 0-3.1 2.5-5.6 5.6-5.6s5.6 2.5 5.6 5.6c0 3.1-2.5 5.6-5.6 5.6zm0-10.1c-2.5 0-4.5 2-4.5 4.5s2 4.5 4.5 4.5 4.5-2 4.5-4.5-2-4.5-4.5-4.5zM44.9 91.1c-.2 0-.5-.2-.5-.4-.1-.3.1-.6.4-.6 0 0 2.3-.5 4.4-2 2.7-1.9 4-4.4 3.7-7.5-.3-2.7-1.6-4.6-4-5.8-1.8-.9-3.5-1-3.5-1-.3 0-.5-.3-.5-.6s.3-.5.6-.5c.1 0 7.8.5 8.5 7.7.9 8.3-8.8 10.6-8.9 10.6-.1.1-.1.1-.2.1z"/><path class="st2" d="M96.7 87.3s9.6 3.1 15-9.7c5.4-12.8 13.1-17.6-9.6-24.3s6.8 12.9-5.4 34z"/><path d="M99.3 88.2c-1.6 0-2.7-.3-2.8-.4-.2 0-.3-.2-.3-.3-.1-.2 0-.3 0-.5 6.1-10.5 1.5-20.7-1.5-27.4-1.7-3.7-2.7-6.1-1.6-7.4 1-1.2 3.7-1 9.1.6 9.3 2.8 13.9 5.3 15.3 8.5 1.3 3-.4 6.4-2.6 10.7-.9 1.7-1.9 3.7-2.8 5.8-1.6 3.8-4.6 8.5-9.9 9.9-1 .4-2 .5-2.9.5zm-1.8-1.3c2.2.4 9.3.9 13.7-9.5.9-2.2 1.9-4.1 2.8-5.9 2.1-4.2 3.7-7.2 2.5-9.8-1.2-2.8-5.7-5.2-14.6-7.9-4.6-1.4-7.3-1.7-8-.9-.7.8.4 3.3 1.8 6.3 3.1 6.8 7.7 16.9 1.8 27.7zM86.4 87.5c-2 0-7.3-.6-10-6.7-.9-2.1-1-4.2-.3-6.1 1.5-3.6 5.5-5.3 5.7-5.4.3-.1.6 0 .7.3.1.3 0 .6-.3.7 0 0-3.8 1.6-5.1 4.8-.6 1.6-.6 3.4.3 5.2 1.3 2.9 3.3 4.8 6 5.6 2 .6 3.6.4 3.7.4.3 0 .6.2.6.5s-.2.6-.5.6c0 .1-.3.1-.8.1z"/><g><path class="st5" d="M40.3 48.1S36.2 27 50.6 18.5s25.4 4 25 11.7c0 0-4.8-7.7-11.3 2.7 0 0 5.9-3.5 10.4 2.9 0 0 7.2-1.6 9.9 6.4 0 0 14.4 4.3 11.7 19.2 0 0-4.7-10.8-15.3-8-10.6 2.9-8.4 6.4-11.9 14.7-3.5 8.2-5.9 10-15.3 1.2-9.5-8.8-19.6-5.1-20.4 7.5.1.1-9.2-27.4 6.9-28.7z"/><path d="M33.5 77.4c-.2 0-.4-.1-.5-.4-.2-.7-5.7-17.1-.3-25.2 1.6-2.4 4-3.8 7.1-4.2-.2-1.5-.8-6-.2-11.2 1-8.5 4.8-14.8 10.9-18.4 8.4-5 14.9-2.5 18-.6 4.8 2.9 8.1 8.3 7.8 12.9 0 .2-.2.4-.4.5-.2.1-.5 0-.6-.2 0 0-1.6-2.5-4-2.5-1.8 0-3.6 1.3-5.4 3.8.6-.2 1.3-.3 2.1-.3 1.9-.1 4.7.6 7.1 3.8 2.7-.5 7.9.4 10 6.6.9.3 4 1.5 6.8 4 3.1 2.8 6.4 7.7 5 15.7 0 .2-.2.4-.5.4-.2 0-.5-.1-.6-.3-.2-.4-4.7-10.4-14.7-7.6-7.7 2.1-8.4 4.4-9.7 9-.5 1.5-1 3.3-1.8 5.3-1.8 4.2-3.3 6.7-5.6 7.2-2.4.5-5.5-1.2-10.5-5.9-4.5-4.1-9.3-5.6-13.1-4.1-3.7 1.5-6 5.6-6.3 11.2-.1.3-.3.5-.6.5zm10-13.4c3.4 0 7.2 1.7 10.7 5 4.7 4.4 7.6 6 9.6 5.6 1.9-.4 3.3-2.8 4.9-6.6.8-2 1.4-3.7 1.8-5.2 1.4-4.7 2.2-7.5 10.5-9.7 8.4-2.3 13.3 3.9 15.1 6.8.5-5.3-1.1-9.7-4.9-13.1-3.1-2.8-6.6-3.9-6.7-3.9-.2-.1-.3-.2-.4-.3-2.4-7.4-9-6.1-9.2-6-.2 0-.4 0-.6-.2-1.8-2.5-3.9-3.7-6.4-3.6-1.9.1-3.2.9-3.3.9-.2.1-.5.1-.7-.1-.2-.2-.2-.4-.1-.7 2.3-3.8 4.8-5.7 7.2-5.7 1.7 0 3.1.9 3.9 1.8-.5-3.8-3.4-8-7.3-10.4-5-3-11-2.8-16.9.6-5.8 3.4-9.3 9.4-10.3 17.6-.6 6 .4 11.2.4 11.2 0 .1 0 .3-.1.4-.1.1-.2.2-.4.2-3.1.2-5.4 1.5-6.9 3.8-3.9 5.8-1.6 16.8-.3 21.8.8-4.7 3.2-8.1 6.7-9.5 1.3-.4 2.5-.7 3.7-.7z"/></g><g><ellipse transform="rotate(169.052 65.3 96.547)" class="st2" cx="65.3" cy="96.5" rx="4.6" ry="3.3"/><path d="M64.7 100.4c-.9 0-1.7-.2-2.4-.5-1.1-.5-1.9-1.4-2.1-2.4-.2-1 .2-2.1 1-3 .8-.9 2-1.5 3.3-1.7 1.3-.3 2.6-.1 3.7.4s1.9 1.4 2.1 2.4c.4 2.1-1.5 4.2-4.3 4.7-.4.1-.9.1-1.3.1zm1.2-6.7c-.4 0-.7 0-1.1.1-1.1.2-2.1.7-2.7 1.4-.6.6-.9 1.4-.7 2.1.1.7.7 1.3 1.5 1.6.9.4 2 .5 3.1.3 2.2-.4 3.8-2 3.5-3.5-.1-.7-.7-1.3-1.5-1.6-.7-.2-1.4-.4-2.1-.4z"/></g><circle class="st6" cx="42.3" cy="83" r=".9"/><circle class="st6" cx="63.6" cy="95.6" r=".6"/><circle class="st6" cx="84.4" cy="80.6" r=".9"/><g><path class="st1" d="M82.5 125.4s-8.1 5-4.3 14.7c0-.1 6.5-.3 4.3-14.7z"/><path d="M77.9 140.6l-.1-.4c-3.9-9.9 4.4-15.3 4.5-15.3l.7-.4.1.8c1 6.4.4 11-1.7 13.5-1.4 1.7-3 1.8-3.1 1.8h-.4zm4.2-14.3c-1.8 1.4-6.2 5.8-3.5 13.1.4-.1 1.2-.5 2-1.4 1.2-1.5 2.4-4.7 1.5-11.7z"/></g><g><path class="st1" d="M85.5 140.2s5.7-3-2.5-15.1c0 .1-5.1 8.1 2.5 15.1"/><path d="M85.4 140.9l-.3-.3c-7.8-7.3-2.6-15.7-2.6-15.7l.4-.7.5.7c3.6 5.4 5.1 9.7 4.3 12.9-.5 2.2-2 2.9-2 3l-.3.1zm-2.3-14.7c-1 2-3.1 7.9 2.5 13.4.4-.3.9-.9 1.2-2.1.4-1.9.1-5.4-3.7-11.3z"/></g><ellipse transform="rotate(163.496 63.42 98.362)" cx="63.4" cy="98.4" rx=".8" ry="1.1"/><ellipse cx="67.6" cy="97.7" rx=".8" ry="1.1"/><g><path class="st1" d="M84.4 120.7c-3.5 0-6.6 1.9-5.1 4.1 1.5 2.2 4 3.8 6 2.8s-.9-6.9-.9-6.9z"/><path d="M84 128.5c-1.6 0-3.5-1-5.1-3.3-.6-.8-.6-1.7-.2-2.5.8-1.4 3.1-2.5 5.8-2.5h.3l.1.3c0 .1.8 1.5 1.2 3.1.7 2.4.5 3.9-.6 4.5-.4.2-.9.4-1.5.4zm.1-7.2c-2.1.1-3.9.9-4.5 1.9-.2.4-.2.9.2 1.4 1.3 1.9 3.5 3.5 5.3 2.6 1-.6 0-3.8-1-5.9z"/></g><path class="st6" d="M57.6 19.1s-18.9 6.2-14.4 29.7c0 0-.3-9.2 3.7-14.8 0 0-1.5 13.4 1 20 0 0-1.2-10.8 4.3-21 0 0-2.6 6.2 2.1 15.8 0 0-1.5-7.5 3.4-12.3 0 0-2 6.9 3.1 12.3 0 0-2-22.9 10.1-23.1 0 0-6.8-1.6-11.7 5.7 0 0-2-8.2 6.5-12.3 0 0-7 .2-13.1 11.6-.1 0-2.1-7.5 5-11.6zM70.8 36.5s-6.4 2.5-4.2 14c0 0 .8-4.4 3.3-7 0 0-1.4 4.9 1.6 10.4 0 0-.5-2.1 2-3.6 0 0-.3 2.1 1.1 3.6 0 0-1.1-10.8 7.5-13.3 0 0-6.6-.4-9.3 4.6 0 0 .6-6.2 4.4-7.1 0 0-5.2-1.6-8.9 4.6 0 0 .4-3.4 2.5-6.2z"/><path class="st7" d="M62.6 118.6s6.2 2 11.9-.5c0 0-5.5 5.7-11.9.5z"/><path class="st6" d="M40.4 87.1s1.1 3.1 3.8 3.1 3.9-2.6 3.9-2.6-1.3 2.2-3.9 2.2c-2.5 0-3.8-2.7-3.8-2.7zM83 83.3s1.2 3.3 4 3.3 4.1-2.8 4.1-2.8-1.4 2.3-4.1 2.3c-2.6 0-4-2.8-4-2.8z"/><g><path class="st0" d="M147.8 117.5s-5.6.7-3.7-4c1.9-4.8 5.2-3.1 5.2-3.1l1.6-5.1s-5.1-3.4-11.4 5 3.2 15 8 10.8l.3-3.6z"/><path d="M143.9 122.8c-1.7 0-3.4-.7-4.8-2-1.3-1.2-2.1-2.9-2.2-4.7-.1-2 .6-4.2 2.2-6.3 6.5-8.7 11.9-5.3 12.2-5.1l.3.2-1.9 6.1-.6-.3s-1-.5-2.1-.1c-1 .4-1.8 1.3-2.3 2.8-.4 1.1-.5 2 0 2.5.7.9 2.5.9 3.2.8l.7-.1-.4 4.4-.2.1c-1.3 1.2-2.7 1.7-4.1 1.7zm4.2-17.8c-1.9 0-4.9 1-8.3 5.5-3.1 4.2-2.1 7.7-.1 9.5 1.8 1.7 4.9 2.4 7.2.6l.3-2.7c-.9 0-2.6-.1-3.5-1.2-.7-.9-.7-2.1-.1-3.6.7-1.8 1.7-3 3-3.5.9-.4 1.8-.2 2.3-.1l1.3-4.2c-.4 0-1.1-.3-2.1-.3z"/><path class="st0" d="M171.7 152.7s-4 4.2 1.2 6.9c3.9 2 6.8 0 6.8 0s3 2.7 4.8-.5c.5-.9 4.3 1.2 5.4.1 4.2-4.5-.5-7.6-.5-7.6l-17.7 1.1z"/><path d="M182.2 161.2c-1.1 0-2.1-.6-2.6-1-.9.5-3.6 1.6-7-.2-1.7-.9-2.7-2-2.9-3.4-.4-2.3 1.5-4.2 1.5-4.3l.1-.2 18.2-1.2.2.1c.1.1 2.2 1.5 2.4 3.8.2 1.5-.5 3.1-1.9 4.6-.8.8-2.3.5-3.7.1-.6-.1-1.4-.3-1.7-.3-.6 1-1.3 1.6-2.2 1.7-.1.3-.2.3-.4.3zm-2.5-2.3l.3.3s1.3 1.1 2.5.9c.6-.1 1.1-.5 1.5-1.2.4-.8 1.5-.5 2.8-.2.9.2 2.3.5 2.7.2 1.2-1.3 1.7-2.5 1.6-3.7-.2-1.6-1.4-2.7-1.8-3l-17.3 1.1c-.4.5-1.4 1.8-1.1 3.3.2 1 1 1.9 2.3 2.6 3.5 1.8 6.1.1 6.2 0l.3-.3z"/><path class="st0" d="M212 149.3s-3.8 7 1.4 8.6c5.1 1.6 5.7-2.4 5.7-2.4s4.8 3.2 5.5-2.4c3.3.9 11.3-4.3.9-9.8l-13.5 6z"/><path d="M215.6 158.9c-.7 0-1.5-.1-2.4-.4-1.3-.4-2.3-1.2-2.7-2.4-1.2-2.9 1-6.8 1.1-7l.1-.2 13.8-6.1.2.1c5.8 3.1 5.7 6 5.2 7.4-.9 2.2-3.8 3.6-5.9 3.4-.3 1.5-.9 2.5-1.9 3-1.3.6-2.8 0-3.7-.4-.2.6-.6 1.4-1.5 1.9-.7.5-1.4.7-2.3.7zm-3.2-9.2c-.4.7-1.8 3.8-.9 6 .3.9 1 1.4 2.1 1.8 1.6.5 2.9.5 3.7-.1 1-.7 1.2-1.9 1.2-1.9l.1-.8.7.5s1.9 1.3 3.3.7c.7-.3 1.2-1.2 1.4-2.7l.1-.6.6.2c1.6.4 4.5-.8 5.2-2.7.7-1.9-.8-4-4.4-6l-13.1 5.6z"/><path class="st0" d="M154.9 95.7s-14.1 27.2-3.3 39.6c10.8 12.4 19.2 20.4 29.5 18.5 10.3-1.9 9.8-4.4 26-4s43.8-19.3 27.3-49.3l-79.5-4.8z"/><path d="M178.1 154.5c-3.9 0-7.8-1.4-11.9-4.3-5.1-3.5-10.2-9.1-15-14.7-4.5-5.2-5.4-13.8-2.5-24.9 2.2-8.3 5.7-15.2 5.7-15.2l.2-.3 80.1 4.8.1.3c8.3 15.1 5.1 26.5.9 33.4-6.8 11.2-19.9 17-28.6 16.7-10.7-.3-14 .7-18.1 2-2 .6-4.3 1.3-7.7 2-1.1.1-2.2.2-3.2.2zm-22.9-58.3c-1.5 3-13 27.4-3.2 38.7 4.8 5.5 9.9 11 14.8 14.5s9.4 4.7 14.2 3.8c3.4-.6 5.6-1.3 7.6-1.9 4.2-1.3 7.6-2.4 18.5-2.1 8.5.2 21.1-5.3 27.7-16.2 4-6.6 7.1-17.5-.8-32l-78.8-4.8z"/><path class="st1" d="M156.3 99.7s12.2 30.1 35.5 30.1 38.1-15.3 42.8-28.2l-78.3-1.9z"/><path d="M191.8 130.4c-9.7 0-19-5.3-26.9-15.3-5.9-7.5-9.1-15.1-9.1-15.2-.1-.2 0-.4.1-.5.1-.1.3-.2.5-.2l78.3 1.9c.2 0 .3.1.4.2.1.1.1.3.1.5-2.6 7.1-7.9 14.1-14.6 19.2-8.3 6.2-18.2 9.4-28.8 9.4zm-34.6-30.1c.9 2.1 3.9 8.2 8.6 14.2 5.4 6.8 14.2 14.8 26 14.8 10.4 0 20.1-3.2 28-9.2 6.3-4.8 11.4-11.3 14-18l-76.6-1.8z"/><path class="st0" d="M154.5 94.6s12.8 33.6 41.4 30.6 49.1-26.8 34.5-39.6l-4-26.1-13.3-10.7-51 12.1-9.8 12.4 2.2 21.3z"/><path d="M192.2 125.9c-5.3 0-10.4-1.3-15.2-3.8-4.7-2.4-9.1-6.1-13-10.8-6.8-8-10-16.5-10.1-16.6v-.2L151.7 73l10-12.8L213.2 48l13.7 11 4 26.1c4.4 4 5.9 9.4 4 15.2-1.8 5.8-6.7 11.5-13.6 16.2-7.3 4.9-16.3 8.1-25.4 9.1-1.2.2-2.5.3-3.7.3zM155 94.5c.3.8 3.5 8.7 9.9 16.2 3.9 4.6 8.2 8.1 12.7 10.5 5.7 3 11.8 4.1 18.2 3.4 9-1 17.8-4.1 25-8.9 6.7-4.5 11.4-10.1 13.2-15.6 1.7-5.5.4-10.4-3.9-14.2l-.1-.1-4-26.1-13-10.4-50.6 12-9.5 12.1 2.1 21.1z"/><path class="st2" d="M168.1 62.1s-7.4-8.8-10.2-6c-2.8 2.8-2.3 5.5-7.3 6.6-12.2 2.6.7 34-4 37 0 0 16.8-9.4 14.7-15.2-2.4-6.7.9-16.6.9-16.6l5.9-5.8z"/><path d="M146.7 100.2c-.2 0-.4-.1-.5-.3-.1-.2-.1-.6.2-.7 1.5-1 .6-6.9-.2-12.6-1.6-10.2-3.5-22.8 4.4-24.5 3.1-.6 3.9-1.9 4.9-3.6.5-.9 1.1-1.8 2.1-2.8.5-.5 1.1-.7 1.9-.7 1.5.1 3.5 1.2 5.9 3.5 1.8 1.6 3.1 3.2 3.1 3.3.2.2.2.5 0 .7l-5.6 5.6c-.4 1.1-3.1 10.1-.9 16.1 1 2.7-1.3 6.2-6.8 10.4-3.9 3.1-8.2 5.4-8.2 5.5-.1.1-.2.1-.3.1zm12.6-44c-.4 0-.7.1-1 .4-.9.9-1.4 1.8-2 2.6-1.1 1.7-2 3.3-5.6 4.1-6.9 1.5-5.1 13.5-3.6 23.3.8 5.5 1.4 9.5.9 11.7 5.2-3.1 14.2-9.6 12.8-13.6-1-2.9-1.2-6.6-.5-11.1.5-3.3 1.4-5.8 1.4-5.9 0-.1.1-.1.1-.2l5.4-5.4c-1.5-1.9-5.4-5.8-7.9-5.9.1 0 .1 0 0 0zM174.1 134.6c-.1 0-.2 0-.2-.1-8.1-4.2-12.7-13.8-15-21.2-2.5-7.9-3.2-14.9-3.2-15 0-.3.2-.6.5-.6s.6.2.6.5 2.6 27.6 17.6 35.3c.3.1.4.5.2.7-.1.3-.3.4-.5.4zM227.9 124.5c-.1 0-.3-.1-.4-.2-.2-.2-.2-.6 0-.8 7.7-6.8 8.1-19.3 8.1-19.4 0-.3.3-.5.5-.5.3 0 .5.3.5.5 0 .5-.5 13.1-8.5 20.2 0 .2-.1.2-.2.2z"/><path class="st0" d="M148.6 129.9s-4.9 8.2 0 11.8 7.7-1.1 7.7-1.1l-7.7-10.7z"/><path d="M152.2 143.6c-1.3 0-2.6-.5-3.9-1.5-2.2-1.6-2.9-4.3-2-7.8.6-2.5 1.8-4.6 1.9-4.7l.4-.7 8.4 11.6-.2.3c-.1.1-1.3 2.2-3.7 2.7-.3 0-.6.1-.9.1zm-3.5-12.7c-1 2-3.4 7.7.3 10.4 1.4 1 2.7 1.4 4 1.2 1.4-.3 2.4-1.4 2.8-1.9l-7.1-9.7z"/><path class="st2" d="M196.1 95.7s5.4 6 16.6 2.7c11.2-3.4-.8 14.5-7 17.9-6.3 3.4-26.5 5.8-36.5-8.8-6.1-9 16.6-1.2 19.4-10.5"/><path d="M192.9 119.3c-8.3 0-18.1-2.7-24.1-11.6-1.1-1.6-1.4-2.8-.9-3.8.9-1.8 3.9-2 7.8-2.2 5.2-.3 11.2-.7 12.4-5 .1-.3.4-.4.7-.4.3.1.4.4.4.7-1.5 5-8.1 5.4-13.4 5.7-3.3.2-6.3.4-6.9 1.6-.3.6 0 1.5.8 2.7 9.7 14.3 29.5 12 35.8 8.7 2.2-1.2 5.4-4.4 7.9-8 2.6-3.7 3.9-7.1 3.3-8.4-.5-1.1-2.3-.8-3.8-.4-11.4 3.4-16.9-2.6-17.2-2.8-.2-.2-.2-.6 0-.8.2-.2.6-.2.8 0 .2.2 5.3 5.7 16.1 2.5 1.9-.6 4.3-.9 5.1 1 1.6 4-7 15.3-11.7 17.8-2.7 1.5-7.6 2.7-13.1 2.7z"/><path class="st2" d="M170.1 107.8s7.9 5.7 15.8 6c7.9.3 24.3.8 29.6-10.4l-45.4 4.4z"/><path class="st3" d="M206.4 109.4c7.9 9.8-6.6 13.8-16.9 12.9-10.3-1-4.3-11.1-4.3-11.1l4.7-7.8 6.1-1.5 10.4 7.5z"/><path d="M192.5 123c-1.1 0-2.1 0-3.1-.1-3-.3-5-1.4-5.9-3.2-1.8-3.5 1.1-8.5 1.3-8.7l4.8-8 6.6-1.6 10.6 7.8v.1c2.4 3 3 5.7 1.8 8-2.1 3.7-9.3 5.7-16.1 5.7zm-2.3-19.2l-4.6 7.6s-2.7 4.7-1.2 7.7c.8 1.5 2.5 2.4 5.1 2.6 7 .7 16-1.1 18.1-5.1 1-1.9.5-4.2-1.6-6.8l-10-7.4-5.8 1.4z"/><path class="st2" d="M210.1 85.6c-1.3-1.5-5.3-9.7.6-11.5 5.9-1.8 9.1-.6 10 1.2 2.5 4.9-1.1 9.2-1.9 9.7l-8.7.6z"/><path class="st4" d="M194.3 119.7c-2.1-6.1-.7-14-.7-14.3l1.1.2c0 .1-1.4 7.9.6 13.7l-1 .4z"/><path class="st2" d="M193.1 99.8s3.4 12.7-7.9 11.4c-11.2-1.2-16-3.8-16-3.8"/><path d="M186.7 111.8c-.5 0-1 0-1.5-.1-11.1-1.2-16-3.8-16.2-3.9-.3-.1-.4-.5-.2-.7.1-.3.5-.4.7-.2 0 0 4.9 2.6 15.8 3.8 2.9.3 5-.3 6.3-1.8 2.6-3.1 1.1-8.9 1.1-9-.1-.3.1-.6.4-.7.3-.1.6.1.7.4.1.3 1.7 6.5-1.3 10-1.5 1.5-3.4 2.2-5.8 2.2z"/><path class="st2" d="M176.5 88.4s4.8-13.3-8.4-11.8c-8.9 1-1.3 11.4-1.3 11.4l9.7.4zM217.1 101.5c-9.1 10.9-21.9 11.9-23.5 1.9l-.6-5 3.6-2.2s5 5.2 16.1 2.2c7.8-2.2 4.4 3.1 4.4 3.1z"/><path d="M201.6 110.9c-.9 0-1.9-.1-2.7-.4-3.2-.9-5.3-3.4-5.8-7.1l-.6-5c0-.2.1-.4.2-.5l3.6-2.2c.2-.1.5-.1.7.1 0 0 5 5 15.6 2.1 2.9-.8 4.7-.7 5.5.3 1 1.3-.3 3.4-.5 3.6v.1c-4.9 5.6-10.9 9-16 9zm-8.1-12.3l.6 4.7c.5 3.3 2.3 5.4 5.1 6.2 5.1 1.4 12.1-1.9 17.5-8.3.3-.5.9-1.8.5-2.4-.2-.3-1-.8-4.3.1-9.9 2.7-15-1-16.3-2.1l-3.1 1.8z"/><circle cx="171.5" cy="85.6" r="5"/><path d="M171.5 91.1c-3.1 0-5.6-2.5-5.6-5.6 0-3.1 2.5-5.6 5.6-5.6 3.1 0 5.6 2.5 5.6 5.6-.1 3.1-2.5 5.6-5.6 5.6zm0-10c-2.5 0-4.5 2-4.5 4.5s2 4.5 4.5 4.5 4.5-2 4.5-4.5-2-4.5-4.5-4.5z"/><circle cx="214.3" cy="81.9" r="5"/><path d="M214.3 87.5c-3.1 0-5.6-2.5-5.6-5.6 0-3.1 2.5-5.6 5.6-5.6s5.6 2.5 5.6 5.6c-.1 3.1-2.6 5.6-5.6 5.6zm0-10.1c-2.5 0-4.5 2-4.5 4.5s2 4.5 4.5 4.5 4.5-2 4.5-4.5-2-4.5-4.5-4.5zM172.1 91.1c-.2 0-.5-.2-.5-.4-.1-.3.1-.6.4-.6 0 0 2.3-.5 4.4-2 2.7-1.9 4-4.4 3.7-7.5-.3-2.7-1.6-4.6-4-5.8-1.8-.9-3.5-1-3.5-1-.3 0-.5-.3-.5-.6s.3-.5.6-.5c.1 0 7.8.5 8.5 7.7.9 8.3-8.8 10.6-8.9 10.6-.1.1-.2.1-.2.1z"/><path class="st2" d="M223.9 87.3s9.6 3.1 15-9.7S252 60 229.3 53.3s6.8 12.9-5.4 34z"/><path d="M226.5 88.2c-1.6 0-2.7-.3-2.8-.4-.2 0-.3-.2-.3-.3-.1-.2 0-.3 0-.5 6.1-10.5 1.5-20.7-1.5-27.4-1.7-3.7-2.7-6.1-1.6-7.4 1-1.2 3.7-1 9.1.6 9.3 2.8 13.9 5.3 15.3 8.5 1.3 3-.4 6.4-2.6 10.7-.9 1.7-1.9 3.7-2.8 5.8-1.6 3.8-4.6 8.5-9.9 9.9-1 .4-2 .5-2.9.5zm-1.8-1.3c2.2.4 9.3.9 13.7-9.5.9-2.2 1.9-4.1 2.8-5.9 2.1-4.2 3.7-7.2 2.5-9.8-1.2-2.8-5.7-5.2-14.6-7.9-4.6-1.4-7.3-1.7-8-.9-.7.8.4 3.3 1.8 6.3 3.1 6.8 7.7 16.9 1.8 27.7zM213.6 87.5c-2 0-7.3-.6-10-6.7-.9-2.1-1-4.2-.3-6.1 1.5-3.6 5.5-5.3 5.7-5.4.3-.1.6 0 .7.3.1.3 0 .6-.3.7 0 0-3.8 1.6-5.1 4.8-.6 1.6-.6 3.4.3 5.2 1.3 2.9 3.3 4.8 6 5.6 2 .6 3.6.4 3.7.4.3 0 .6.2.6.5s-.2.6-.5.6c-.1.1-.4.1-.8.1z"/><g><path class="st5" d="M167.5 48.1s-4.1-21.1 10.3-29.6c14.5-8.5 25.4 4 25 11.7 0 0-4.8-7.7-11.3 2.7 0 0 5.9-3.5 10.4 2.9 0 0 7.2-1.6 9.9 6.4 0 0 14.4 4.3 11.7 19.2 0 0-4.7-10.8-15.3-8-10.6 2.9-8.4 6.4-11.9 14.7s-5.9 10-15.3 1.2c-9.5-8.8-19.6-5.1-20.4 7.5 0 .1-9.2-27.4 6.9-28.7z"/><path d="M160.6 77.4c-.2 0-.4-.1-.5-.4-.2-.7-5.7-17.1-.3-25.2 1.6-2.4 4-3.8 7.1-4.2-.2-1.5-.8-6-.2-11.2 1-8.5 4.8-14.8 10.9-18.4 8.4-5 14.9-2.5 18-.6 4.8 2.9 8.1 8.3 7.8 12.9 0 .2-.2.4-.4.5-.2.1-.5 0-.6-.2 0 0-1.6-2.5-4-2.5-1.8 0-3.6 1.3-5.4 3.8.6-.2 1.3-.3 2.1-.3 1.9-.1 4.7.6 7.1 3.8 2.7-.5 7.9.4 10 6.6.9.3 4 1.5 6.8 4 3.1 2.8 6.4 7.7 5 15.7 0 .2-.2.4-.5.4-.2 0-.5-.1-.6-.3-.2-.4-4.7-10.4-14.7-7.6-7.7 2.1-8.4 4.4-9.7 9-.5 1.5-1 3.3-1.8 5.3-1.8 4.2-3.3 6.7-5.6 7.2-2.4.5-5.5-1.2-10.5-5.9-4.5-4.1-9.3-5.6-13.1-4.1-3.7 1.5-6 5.6-6.3 11.2 0 .3-.2.5-.6.5.1 0 .1 0 0 0zM170.7 64c3.4 0 7.2 1.7 10.7 5 4.7 4.4 7.6 6 9.6 5.6 1.9-.4 3.3-2.8 4.9-6.6.8-2 1.4-3.7 1.8-5.2 1.4-4.7 2.2-7.5 10.5-9.7 8.4-2.3 13.3 3.9 15.1 6.8.5-5.3-1.1-9.7-4.9-13.1-3.1-2.8-6.6-3.9-6.7-3.9-.2-.1-.3-.2-.4-.3-2.4-7.4-9-6.1-9.2-6-.2 0-.4 0-.6-.2-1.8-2.5-3.9-3.7-6.4-3.6-1.9.1-3.2.9-3.3.9-.2.1-.5.1-.7-.1-.2-.2-.2-.4-.1-.7 2.3-3.8 4.8-5.7 7.2-5.7 1.7 0 3.1.9 3.9 1.8-.5-3.8-3.4-8-7.3-10.4-5-3-11-2.8-16.9.6-5.8 3.4-9.3 9.4-10.3 17.6-.6 6 .4 11.2.4 11.2 0 .1 0 .3-.1.4-.1.1-.2.2-.4.2-3.1.2-5.4 1.5-6.9 3.8-3.9 5.8-1.6 16.8-.3 21.8.8-4.7 3.2-8.1 6.7-9.5 1.2-.4 2.4-.7 3.7-.7z"/></g><g><ellipse transform="rotate(169.052 192.48 96.545)" class="st2" cx="192.5" cy="96.5" rx="4.6" ry="3.3"/><path d="M191.9 100.4c-.9 0-1.7-.2-2.4-.5-1.1-.5-1.9-1.4-2.1-2.4-.2-1 .2-2.1 1-3 .8-.9 2-1.5 3.3-1.7 1.3-.3 2.6-.1 3.7.4s1.9 1.4 2.1 2.4c.4 2.1-1.5 4.2-4.3 4.7-.4.1-.9.1-1.3.1zm1.2-6.7c-.4 0-.7 0-1.1.1-1.1.2-2.1.7-2.7 1.4-.6.6-.9 1.4-.7 2.1.1.7.7 1.3 1.5 1.6.9.4 2 .5 3.1.3 2.2-.4 3.8-2 3.5-3.5-.1-.7-.7-1.3-1.5-1.6-.8-.2-1.4-.4-2.1-.4z"/></g><circle class="st6" cx="169.5" cy="83" r=".9"/><circle class="st6" cx="190.8" cy="95.6" r=".6"/><circle class="st6" cx="211.6" cy="80.6" r=".9"/><g><path class="st1" d="M209.7 125.4s-8.1 5-4.3 14.7c0-.1 6.5-.3 4.3-14.7z"/><path d="M205 140.6l-.1-.4c-3.9-9.9 4.4-15.3 4.5-15.3l.7-.4.1.8c1 6.4.4 11-1.7 13.5-1.4 1.7-3 1.8-3.1 1.8h-.4zm4.3-14.3c-1.8 1.4-6.2 5.8-3.5 13.1.4-.1 1.2-.5 2-1.4 1.2-1.5 2.4-4.7 1.5-11.7z"/></g><g><path class="st1" d="M212.7 140.2s5.7-3-2.5-15.1c0 .1-5.1 8.1 2.5 15.1"/><path d="M212.6 140.9l-.3-.3c-7.8-7.3-2.6-15.7-2.6-15.7l.4-.7.5.7c3.6 5.4 5.1 9.7 4.3 12.9-.5 2.2-2 2.9-2 3l-.3.1zm-2.3-14.7c-1 2-3.1 7.9 2.5 13.4.4-.3.9-.9 1.2-2.1.4-1.9.1-5.4-3.7-11.3z"/></g><ellipse transform="rotate(163.496 190.598 98.362)" cx="190.6" cy="98.4" rx=".8" ry="1.1"/><ellipse cx="194.8" cy="97.7" rx=".8" ry="1.1"/><g><path class="st1" d="M211.6 120.7c-3.5 0-6.6 1.9-5.1 4.1s4 3.8 6 2.8-.9-6.9-.9-6.9z"/><path d="M211.2 128.5c-1.6 0-3.5-1-5.1-3.3-.6-.8-.6-1.7-.2-2.5.8-1.4 3.1-2.5 5.8-2.5h.3l.1.3c0 .1.8 1.5 1.2 3.1.7 2.4.5 3.9-.6 4.5-.4.2-1 .4-1.5.4zm.1-7.2c-2.1.1-3.9.9-4.5 1.9-.2.4-.2.9.2 1.4 1.3 1.9 3.5 3.5 5.3 2.6 1-.6 0-3.8-1-5.9z"/></g><path class="st6" d="M184.8 19.1s-18.9 6.2-14.4 29.7c0 0-.3-9.2 3.7-14.8 0 0-1.5 13.4 1 20 0 0-1.2-10.8 4.3-21 0 0-2.6 6.2 2.1 15.8 0 0-1.5-7.5 3.4-12.3 0 0-2 6.9 3.1 12.3 0 0-2-22.9 10.1-23.1 0 0-6.8-1.6-11.7 5.7 0 0-2-8.2 6.5-12.3 0 0-7 .2-13.1 11.6-.1 0-2.1-7.5 5-11.6zM198 36.5s-6.4 2.5-4.2 14c0 0 .8-4.4 3.3-7 0 0-1.4 4.9 1.6 10.4 0 0-.5-2.1 2-3.6 0 0-.3 2.1 1.1 3.6 0 0-1.1-10.8 7.5-13.3 0 0-6.6-.4-9.3 4.6 0 0 .6-6.2 4.4-7.1 0 0-5.2-1.6-8.9 4.6 0 0 .4-3.4 2.5-6.2z"/><path class="st7" d="M189.8 118.6s6.2 2 11.9-.5c0 0-5.5 5.7-11.9.5z"/><path class="st6" d="M167.5 87.1s1.1 3.1 3.8 3.1 3.9-2.6 3.9-2.6-1.3 2.2-3.9 2.2c-2.5 0-3.8-2.7-3.8-2.7zM210.2 83.3s1.2 3.3 4 3.3 4.1-2.8 4.1-2.8-1.4 2.3-4.1 2.3-4-2.8-4-2.8z"/></g><g><path class="st0" d="M275 117.5s-5.5.7-3.7-4c1.9-4.8 5.2-3.1 5.2-3.1l1.6-5.1s-5.1-3.4-11.4 5 3.2 15 8 10.8l.3-3.6z"/><path d="M271.1 122.8c-1.7 0-3.4-.7-4.8-2-1.3-1.2-2.1-2.9-2.2-4.7-.1-2 .6-4.2 2.2-6.3 6.5-8.7 11.9-5.3 12.2-5.1l.3.2-1.9 6.1-.6-.3s-1-.5-2.1-.1c-1 .4-1.8 1.3-2.3 2.8-.4 1.1-.5 2 0 2.5.7.9 2.5.9 3.2.8l.7-.1-.4 4.4-.2.1c-1.3 1.2-2.7 1.7-4.1 1.7zm4.2-17.8c-1.9 0-4.9 1-8.3 5.5-3.1 4.2-2.1 7.7-.1 9.5 1.8 1.7 4.9 2.4 7.2.6l.3-2.7c-.9 0-2.6-.1-3.5-1.2-.7-.9-.7-2.1-.1-3.6.7-1.8 1.7-3 3-3.5.9-.4 1.8-.2 2.3-.1l1.3-4.2c-.4 0-1.1-.3-2.1-.3z"/><path class="st0" d="M298.9 152.7s-4 4.2 1.2 6.9c3.9 2 6.8 0 6.8 0s3 2.7 4.8-.5c.5-.9 4.3 1.2 5.4.1 4.2-4.5-.5-7.6-.5-7.6l-17.7 1.1z"/><path d="M309.4 161.2c-1.1 0-2.1-.6-2.6-1-.9.5-3.6 1.6-7-.2-1.7-.9-2.7-2-2.9-3.4-.4-2.3 1.5-4.2 1.5-4.3l.1-.2 18.2-1.2.2.1c.1.1 2.2 1.5 2.4 3.8.2 1.5-.5 3.1-1.9 4.6-.8.8-2.3.5-3.7.1-.6-.1-1.4-.3-1.7-.3-.6 1-1.3 1.6-2.2 1.7-.1.3-.2.3-.4.3zm-2.5-2.3l.3.3s1.3 1.1 2.5.9c.6-.1 1.1-.5 1.5-1.2.4-.8 1.5-.5 2.8-.2.9.2 2.3.5 2.7.2 1.2-1.3 1.7-2.5 1.6-3.7-.2-1.6-1.4-2.7-1.8-3l-17.3 1.1c-.4.5-1.4 1.8-1.1 3.3.2 1 1 1.9 2.3 2.6 3.5 1.8 6.1.1 6.2 0l.3-.3z"/><path class="st0" d="M339.2 149.3s-3.8 7 1.4 8.6c5.1 1.6 5.7-2.4 5.7-2.4s4.8 3.2 5.5-2.4c3.3.9 11.3-4.3.9-9.8l-13.5 6z"/><path d="M342.8 158.9c-.7 0-1.5-.1-2.4-.4-1.3-.4-2.3-1.2-2.7-2.4-1.2-2.9 1-6.8 1.1-7l.1-.2 13.8-6.1.2.1c5.8 3.1 5.7 6 5.2 7.4-.9 2.2-3.8 3.6-5.9 3.4-.3 1.5-.9 2.5-1.9 3-1.3.6-2.8 0-3.7-.4-.2.6-.6 1.4-1.5 1.9-.7.5-1.4.7-2.3.7zm-3.2-9.2c-.4.7-1.8 3.8-.9 6 .3.9 1 1.4 2.1 1.8 1.6.5 2.9.5 3.7-.1 1-.7 1.2-1.9 1.2-1.9l.1-.8.7.5s1.9 1.3 3.3.7c.7-.3 1.2-1.2 1.4-2.7l.1-.6.6.2c1.6.4 4.5-.8 5.2-2.7.7-1.9-.8-4-4.4-6l-13.1 5.6z"/><path class="st0" d="M282.1 95.7s-14.1 27.2-3.3 39.6c10.8 12.4 19.2 20.4 29.5 18.5 10.3-1.9 9.8-4.4 26-4s43.8-19.3 27.3-49.3l-79.5-4.8z"/><path d="M305.3 154.5c-3.9 0-7.8-1.4-11.9-4.3-5.1-3.5-10.2-9.1-15-14.7-4.5-5.2-5.4-13.8-2.5-24.9 2.2-8.3 5.7-15.2 5.7-15.2l.2-.3 80.1 4.8.1.3c8.3 15.1 5.1 26.5.9 33.4-6.8 11.2-19.9 17-28.6 16.7-10.7-.3-14 .7-18.1 2-2 .6-4.3 1.3-7.7 2-1.2.1-2.2.2-3.2.2zm-22.9-58.3c-1.5 3-13 27.4-3.2 38.7 4.8 5.5 9.9 11 14.8 14.5s9.4 4.7 14.2 3.8c3.4-.6 5.6-1.3 7.6-1.9 4.2-1.3 7.6-2.4 18.5-2.1 8.5.2 21.1-5.3 27.7-16.2 4-6.6 7.1-17.5-.8-32l-78.8-4.8z"/><path class="st1" d="M283.5 99.7s12.2 30.1 35.5 30.1c23.2 0 38.1-15.3 42.8-28.2l-78.3-1.9z"/><path d="M319 130.4c-9.7 0-19-5.3-26.9-15.3-5.9-7.5-9.1-15.1-9.1-15.2-.1-.2 0-.4.1-.5.1-.1.3-.2.5-.2l78.3 1.9c.2 0 .3.1.4.2.1.1.1.3.1.5-2.6 7.1-7.9 14.1-14.6 19.2-8.3 6.2-18.2 9.4-28.8 9.4zm-34.7-30.1c.9 2.1 3.9 8.2 8.6 14.2 5.4 6.8 14.2 14.8 26 14.8 10.4 0 20.1-3.2 28-9.2 6.3-4.8 11.4-11.3 14-18l-76.6-1.8z"/><path class="st0" d="M281.6 94.6s12.8 33.6 41.4 30.6 49.1-26.8 34.5-39.6l-4-26.1-13.3-10.7-51 12.1-9.8 12.4 2.2 21.3z"/><path d="M319.4 125.9c-5.3 0-10.4-1.3-15.2-3.8-4.7-2.4-9.1-6.1-13-10.8-6.8-8-10-16.5-10.1-16.6v-.2L278.9 73l10-12.8L340.4 48l13.7 11 4 26.1c4.4 4 5.9 9.4 4 15.2-1.8 5.8-6.7 11.5-13.6 16.2-7.3 4.9-16.3 8.1-25.4 9.1-1.3.2-2.5.3-3.7.3zm-37.2-31.4c.3.8 3.5 8.7 9.9 16.2 3.9 4.6 8.2 8.1 12.7 10.5 5.7 3 11.8 4.1 18.2 3.4 9-1 17.8-4.1 25-8.9 6.7-4.5 11.4-10.1 13.2-15.6 1.7-5.5.4-10.4-3.9-14.2l-.1-.1-4-26.1-13-10.4-50.6 12-9.6 12.2 2.2 21z"/><path class="st2" d="M295.3 62.1s-7.4-8.8-10.2-6c-2.8 2.8-2.3 5.5-7.3 6.6-12.2 2.6.7 34-4 37 0 0 16.8-9.4 14.7-15.2-2.4-6.7.9-16.6.9-16.6l5.9-5.8z"/><path d="M273.9 100.2c-.2 0-.4-.1-.5-.3-.1-.2-.1-.6.2-.7 1.5-1 .6-6.9-.2-12.6-1.6-10.2-3.5-22.8 4.4-24.5 3.1-.6 3.9-1.9 4.9-3.6.5-.9 1.1-1.8 2.1-2.8.5-.5 1.1-.7 1.9-.7 1.5.1 3.5 1.2 5.9 3.5 1.8 1.6 3.1 3.2 3.1 3.3.2.2.2.5 0 .7l-5.6 5.6c-.4 1.1-3.1 10.1-.9 16.1 1 2.7-1.3 6.2-6.8 10.4-3.9 3.1-8.2 5.4-8.2 5.5-.1.1-.2.1-.3.1zm12.6-44c-.4 0-.7.1-1 .4-.9.9-1.4 1.8-2 2.6-1.1 1.7-2 3.3-5.6 4.1-6.9 1.5-5.1 13.5-3.6 23.3.8 5.5 1.4 9.5.9 11.7 5.2-3.1 14.2-9.6 12.8-13.6-1-2.9-1.2-6.6-.5-11.1.5-3.3 1.4-5.8 1.4-5.9 0-.1.1-.1.1-.2l5.4-5.4c-1.5-1.9-5.4-5.8-7.9-5.9.1 0 0 0 0 0zM301.3 134.6c-.1 0-.2 0-.2-.1-8.1-4.2-12.7-13.8-15-21.2-2.5-7.9-3.2-14.9-3.2-15 0-.3.2-.6.5-.6s.6.2.6.5 2.6 27.6 17.6 35.3c.3.1.4.5.2.7-.2.3-.3.4-.5.4zM355.1 124.5c-.1 0-.3-.1-.4-.2-.2-.2-.2-.6 0-.8 7.7-6.8 8.1-19.3 8.1-19.4 0-.3.3-.5.5-.5.3 0 .5.3.5.5 0 .5-.5 13.1-8.5 20.2 0 .2-.1.2-.2.2z"/><path class="st0" d="M275.8 129.9s-4.9 8.2 0 11.8 7.7-1.1 7.7-1.1l-7.7-10.7z"/><path d="M279.3 143.6c-1.3 0-2.6-.5-3.9-1.5-2.2-1.6-2.9-4.3-2-7.8.6-2.5 1.8-4.6 1.9-4.7l.4-.7 8.4 11.6-.2.3c-.1.1-1.3 2.2-3.7 2.7-.2 0-.5.1-.9.1zm-3.5-12.7c-1 2-3.4 7.7.3 10.4 1.4 1 2.7 1.4 4 1.2 1.4-.3 2.4-1.4 2.8-1.9l-7.1-9.7z"/><path class="st2" d="M323.2 95.7s5.4 6 16.6 2.7c11.2-3.4-.8 14.5-7 17.9s-26.5 5.8-36.5-8.8c-6.1-9 16.6-1.2 19.4-10.5"/><path d="M320 119.3c-8.3 0-18.1-2.7-24.1-11.6-1.1-1.6-1.4-2.8-.9-3.8.9-1.8 3.9-2 7.8-2.2 5.2-.3 11.2-.7 12.4-5 .1-.3.4-.4.7-.4.3.1.4.4.4.7-1.5 5-8.1 5.4-13.4 5.7-3.3.2-6.3.4-6.9 1.6-.3.6 0 1.5.8 2.7 9.7 14.3 29.5 12 35.8 8.7 2.2-1.2 5.4-4.4 7.9-8 2.6-3.7 3.9-7.1 3.3-8.4-.5-1.1-2.3-.8-3.8-.4-11.4 3.4-16.9-2.6-17.2-2.8-.2-.2-.2-.6 0-.8.2-.2.6-.2.8 0 .2.2 5.3 5.7 16.1 2.5 1.9-.6 4.3-.9 5.1 1 1.6 4-7 15.3-11.7 17.8-2.6 1.5-7.5 2.7-13.1 2.7z"/><path class="st2" d="M297.2 107.8s7.9 5.7 15.8 6c7.9.3 24.3.8 29.6-10.4l-45.4 4.4z"/><path class="st3" d="M333.5 109.4c7.9 9.8-6.6 13.8-16.9 12.9s-4.3-11.1-4.3-11.1l4.7-7.8 6.1-1.5 10.4 7.5z"/><path d="M319.7 123c-1.1 0-2.1 0-3.1-.1-3-.3-5-1.4-5.9-3.2-1.8-3.5 1.1-8.5 1.3-8.7l4.8-8 6.6-1.6 10.6 7.8v.1c2.4 3 3 5.7 1.8 8-2.1 3.7-9.3 5.7-16.1 5.7zm-2.3-19.2l-4.6 7.6s-2.7 4.7-1.2 7.7c.8 1.5 2.5 2.4 5.1 2.6 7 .7 16-1.1 18.1-5.1 1-1.9.5-4.2-1.6-6.8l-10-7.4-5.8 1.4z"/><path class="st2" d="M337.3 85.6c-1.3-1.6-5.3-9.8.6-11.6 5.9-1.8 9.1-.6 10 1.2 2.5 4.9-1.1 9.2-1.9 9.7l-8.7.7z"/><path class="st4" d="M321.5 119.7c-2.1-6.1-.7-14-.7-14.3l1.1.2c0 .1-1.4 7.9.6 13.7l-1 .4z"/><path class="st2" d="M320.3 99.8s3.4 12.7-7.9 11.4c-11.2-1.2-16-3.8-16-3.8"/><path d="M313.8 111.8c-.5 0-1 0-1.5-.1-11.1-1.2-16-3.8-16.2-3.9-.3-.1-.4-.5-.2-.7.1-.3.5-.4.7-.2 0 0 4.9 2.6 15.8 3.8 2.9.3 5-.3 6.3-1.8 2.6-3.1 1.1-8.9 1.1-9-.1-.3.1-.6.4-.7.3-.1.6.1.7.4.1.3 1.7 6.5-1.3 10-1.4 1.5-3.3 2.2-5.8 2.2z"/><path class="st2" d="M303.7 88.4s4.8-13.3-8.4-11.8c-8.9 1-1.3 11.4-1.3 11.4l9.7.4zM344.3 101.5c-9.1 10.9-21.9 11.9-23.5 1.9l-.6-5 3.6-2.2s5 5.2 16.1 2.2c7.8-2.2 4.4 3.1 4.4 3.1z"/><path d="M328.8 110.9c-.9 0-1.9-.1-2.7-.4-3.2-.9-5.3-3.4-5.8-7.1l-.6-5c0-.2.1-.4.2-.5l3.6-2.2c.2-.1.5-.1.7.1 0 0 5 5 15.6 2.1 2.9-.8 4.7-.7 5.5.3 1 1.3-.3 3.4-.5 3.6v.1c-4.9 5.6-10.9 9-16 9zm-8.1-12.3l.6 4.7c.5 3.3 2.3 5.4 5.1 6.2 5.1 1.4 12.1-1.9 17.5-8.3.3-.5.9-1.8.5-2.4-.2-.3-1-.8-4.3.1-9.9 2.7-15-1-16.3-2.1l-3.1 1.8z"/><circle cx="298.7" cy="85.6" r="5"/><path d="M298.7 91.1c-3.1 0-5.6-2.5-5.6-5.6 0-3.1 2.5-5.6 5.6-5.6 3.1 0 5.6 2.5 5.6 5.6-.1 3.1-2.6 5.6-5.6 5.6zm0-10c-2.5 0-4.5 2-4.5 4.5s2 4.5 4.5 4.5 4.5-2 4.5-4.5-2.1-4.5-4.5-4.5z"/><circle cx="341.5" cy="81.9" r="5"/><path d="M341.5 87.5c-3.1 0-5.6-2.5-5.6-5.6 0-3.1 2.5-5.6 5.6-5.6s5.6 2.5 5.6 5.6c-.1 3.1-2.6 5.6-5.6 5.6zm0-10.1c-2.5 0-4.5 2-4.5 4.5s2 4.5 4.5 4.5 4.5-2 4.5-4.5c-.1-2.5-2.1-4.5-4.5-4.5zM299.3 91.1c-.2 0-.5-.2-.5-.4-.1-.3.1-.6.4-.6 0 0 2.3-.5 4.4-2 2.7-1.9 4-4.4 3.7-7.5-.3-2.7-1.6-4.6-4-5.8-1.8-.9-3.5-1-3.5-1-.3 0-.5-.3-.5-.6s.3-.5.6-.5c.1 0 7.8.5 8.5 7.7.9 8.3-8.8 10.6-8.9 10.6-.1.1-.2.1-.2.1z"/><path class="st2" d="M351.1 87.3s9.6 3.1 15-9.7c5.4-12.8 13.1-17.6-9.6-24.3-22.7-6.7 6.8 12.9-5.4 34z"/><path d="M353.7 88.2c-1.6 0-2.7-.3-2.8-.4-.2 0-.3-.2-.3-.3-.1-.2 0-.3 0-.5 6.1-10.5 1.5-20.7-1.5-27.4-1.7-3.7-2.7-6.1-1.6-7.4 1-1.2 3.7-1 9.1.6 9.3 2.8 13.9 5.3 15.3 8.5 1.3 3-.4 6.4-2.6 10.7-.9 1.7-1.9 3.7-2.8 5.8-1.6 3.8-4.6 8.5-9.9 9.9-1 .4-2 .5-2.9.5zm-1.8-1.3c2.2.4 9.3.9 13.7-9.5.9-2.2 1.9-4.1 2.8-5.9 2.1-4.2 3.7-7.2 2.5-9.8-1.2-2.8-5.7-5.2-14.6-7.9-4.6-1.4-7.3-1.7-8-.9-.7.8.4 3.3 1.8 6.3 3.1 6.8 7.6 16.9 1.8 27.7zM340.8 87.5c-2 0-7.3-.6-10-6.7-.9-2.1-1-4.2-.3-6.1 1.5-3.6 5.5-5.3 5.7-5.4.3-.1.6 0 .7.3.1.3 0 .6-.3.7 0 0-3.8 1.6-5.1 4.8-.6 1.6-.6 3.4.3 5.2 1.3 2.9 3.3 4.8 6 5.6 2 .6 3.6.4 3.7.4.3 0 .6.2.6.5s-.2.6-.5.6c-.1.1-.4.1-.8.1z"/><g><path class="st5" d="M294.7 48.1S290.6 27 305 18.5s25.4 4 25 11.7c0 0-4.8-7.7-11.3 2.7 0 0 5.9-3.5 10.4 2.9 0 0 7.2-1.6 9.9 6.4 0 0 14.4 4.3 11.7 19.2 0 0-4.7-10.8-15.3-8-10.6 2.9-8.4 6.4-11.9 14.7s-5.9 10-15.3 1.2c-9.5-8.8-19.6-5.1-20.4 7.5 0 .1-9.2-27.4 6.9-28.7z"/><path d="M287.8 77.4c-.2 0-.4-.1-.5-.4-.2-.7-5.7-17.1-.3-25.2 1.6-2.4 4-3.8 7.1-4.2-.2-1.5-.8-6-.2-11.2 1-8.5 4.8-14.8 10.9-18.4 8.4-5 14.9-2.5 18-.6 4.8 2.9 8.1 8.3 7.8 12.9 0 .2-.2.4-.4.5-.2.1-.5 0-.6-.2 0 0-1.6-2.5-4-2.5-1.8 0-3.6 1.3-5.4 3.8.6-.2 1.3-.3 2.1-.3 1.9-.1 4.7.6 7.1 3.8 2.7-.5 7.9.4 10 6.6.9.3 4 1.5 6.8 4 3.1 2.8 6.4 7.7 5 15.7 0 .2-.2.4-.5.4-.2 0-.5-.1-.6-.3-.2-.4-4.7-10.4-14.7-7.6-7.7 2.1-8.4 4.4-9.7 9-.5 1.5-1 3.3-1.8 5.3-1.8 4.2-3.3 6.7-5.6 7.2-2.4.5-5.5-1.2-10.5-5.9-4.5-4.1-9.3-5.6-13.1-4.1-3.7 1.5-6 5.6-6.3 11.2-.1.3-.3.5-.6.5.1 0 0 0 0 0zM297.9 64c3.4 0 7.2 1.7 10.7 5 4.7 4.4 7.6 6 9.6 5.6 1.9-.4 3.3-2.8 4.9-6.6.8-2 1.4-3.7 1.8-5.2 1.4-4.7 2.2-7.5 10.5-9.7 8.4-2.3 13.3 3.9 15.1 6.8.5-5.3-1.1-9.7-4.9-13.1-3.1-2.8-6.6-3.9-6.7-3.9-.2-.1-.3-.2-.4-.3-2.4-7.4-9-6.1-9.2-6-.2 0-.4 0-.6-.2-1.8-2.5-3.9-3.7-6.4-3.6-1.9.1-3.2.9-3.3.9-.2.1-.5.1-.7-.1-.2-.2-.2-.4-.1-.7 2.3-3.8 4.8-5.7 7.2-5.7 1.7 0 3.1.9 3.9 1.8-.5-3.8-3.4-8-7.3-10.4-5-3-11-2.8-16.9.6-5.8 3.4-9.3 9.4-10.3 17.6-.8 6.2.2 11.4.3 11.5 0 .1 0 .3-.1.4-.1.1-.2.2-.4.2-3.1.2-5.4 1.5-6.9 3.8-3.9 5.8-1.6 16.8-.3 21.8.8-4.7 3.2-8.1 6.7-9.5 1.3-.7 2.5-1 3.8-1z"/></g><g><ellipse transform="rotate(169.052 319.66 96.544)" class="st2" cx="319.7" cy="96.5" rx="4.6" ry="3.3"/><path d="M319.1 100.4c-.9 0-1.7-.2-2.4-.5-1.1-.5-1.9-1.4-2.1-2.4-.2-1 .2-2.1 1-3 .8-.9 2-1.5 3.3-1.7 1.3-.3 2.6-.1 3.7.4s1.9 1.4 2.1 2.4c.4 2.1-1.5 4.2-4.3 4.7-.5.1-.9.1-1.3.1zm1.1-6.7c-.4 0-.7 0-1.1.1-1.1.2-2.1.7-2.7 1.4-.6.6-.9 1.4-.7 2.1.1.7.7 1.3 1.5 1.6.9.4 2 .5 3.1.3 2.2-.4 3.8-2 3.5-3.5-.1-.7-.7-1.3-1.5-1.6-.7-.2-1.4-.4-2.1-.4z"/></g><circle class="st6" cx="296.6" cy="83" r=".9"/><circle class="st6" cx="318" cy="95.6" r=".6"/><circle class="st6" cx="338.8" cy="80.6" r=".9"/><g><path class="st1" d="M336.8 125.4s-8.1 5-4.3 14.7c.1-.1 6.5-.3 4.3-14.7z"/><path d="M332.2 140.6l-.1-.4c-3.9-9.9 4.4-15.3 4.5-15.3l.7-.4.1.8c1 6.4.4 11-1.7 13.5-1.4 1.7-3 1.8-3.1 1.8h-.4zm4.2-14.3c-1.8 1.4-6.2 5.8-3.5 13.1.4-.1 1.2-.5 2-1.4 1.2-1.5 2.5-4.7 1.5-11.7z"/></g><g><path class="st1" d="M339.9 140.2s5.7-3-2.5-15.1c0 .1-5.1 8.1 2.5 15.1"/><path d="M339.8 140.9l-.3-.3c-7.8-7.3-2.6-15.7-2.6-15.7l.4-.7.5.7c3.6 5.4 5.1 9.7 4.3 12.9-.5 2.2-2 2.9-2 3l-.3.1zm-2.3-14.7c-1 2-3.1 7.9 2.5 13.4.4-.3.9-.9 1.2-2.1.4-1.9.1-5.4-3.7-11.3z"/></g><ellipse transform="rotate(163.496 317.777 98.36)" cx="317.8" cy="98.4" rx=".8" ry="1.1"/><ellipse cx="322" cy="97.7" rx=".8" ry="1.1"/><g><path class="st1" d="M338.8 120.7c-3.5 0-6.6 1.9-5.1 4.1 1.5 2.2 4 3.8 6 2.8s-.9-6.9-.9-6.9z"/><path d="M338.3 128.5c-1.6 0-3.5-1-5.1-3.3-.6-.8-.6-1.7-.2-2.5.8-1.4 3.1-2.5 5.8-2.5h.3l.1.3c0 .1.8 1.5 1.2 3.1.7 2.4.5 3.9-.6 4.5-.3.2-.9.4-1.5.4zm.1-7.2c-2.1.1-3.9.9-4.5 1.9-.2.4-.2.9.2 1.4 1.3 1.9 3.5 3.5 5.3 2.6 1-.6.1-3.8-1-5.9z"/></g><path class="st6" d="M312 19.1s-18.9 6.2-14.4 29.7c0 0-.3-9.2 3.7-14.8 0 0-1.5 13.4 1 20 0 0-1.2-10.8 4.3-21 0 0-2.6 6.2 2.1 15.8 0 0-1.5-7.5 3.4-12.3 0 0-2 6.9 3.1 12.3 0 0-2-22.9 10.1-23.1 0 0-6.8-1.6-11.7 5.7 0 0-2-8.2 6.5-12.3 0 0-7 .2-13.1 11.6-.2 0-2.1-7.5 5-11.6zM325.2 36.5s-6.4 2.5-4.2 14c0 0 .8-4.4 3.3-7 0 0-1.4 4.9 1.6 10.4 0 0-.5-2.1 2-3.6 0 0-.3 2.1 1.1 3.6 0 0-1.1-10.8 7.5-13.3 0 0-6.6-.4-9.3 4.6 0 0 .6-6.2 4.4-7.1 0 0-5.2-1.6-8.9 4.6-.1 0 .4-3.4 2.5-6.2z"/><path class="st7" d="M317 118.6s6.2 2 11.9-.5c0 0-5.5 5.7-11.9.5z"/><path class="st6" d="M294.7 87.1s1.1 3.1 3.8 3.1 3.9-2.6 3.9-2.6-1.3 2.2-3.9 2.2-3.8-2.7-3.8-2.7zM337.4 83.3s1.2 3.3 4 3.3 4.1-2.8 4.1-2.8-1.4 2.3-4.1 2.3c-2.6 0-4-2.8-4-2.8z"/></g><g><path class="st0" d="M402.2 117.5s-5.5.7-3.7-4c1.9-4.8 5.2-3.1 5.2-3.1l1.6-5.1s-5.1-3.4-11.4 5c-6.3 8.4 3.2 15 8 10.8l.3-3.6z"/><path d="M398.2 122.8c-1.7 0-3.4-.7-4.8-2-1.3-1.2-2.1-2.9-2.2-4.7-.1-2 .6-4.2 2.2-6.3 6.5-8.7 11.9-5.3 12.2-5.1l.3.2-1.9 6.1-.6-.3s-1-.5-2.1-.1c-1 .4-1.8 1.3-2.3 2.8-.4 1.1-.5 2 0 2.5.7.9 2.5.9 3.2.8l.7-.1-.4 4.4-.2.1c-1.2 1.2-2.6 1.7-4.1 1.7zm4.3-17.8c-1.9 0-4.9 1-8.3 5.5-3.1 4.2-2.1 7.7-.1 9.5 1.8 1.7 4.9 2.4 7.2.6l.3-2.7c-.9 0-2.6-.1-3.5-1.2-.7-.9-.7-2.1-.1-3.6.7-1.8 1.7-3 3-3.5.9-.4 1.8-.2 2.3-.1l1.3-4.2c-.4 0-1.1-.3-2.1-.3z"/><path class="st0" d="M426 152.7s-4 4.2 1.2 6.9c3.9 2 6.8 0 6.8 0s3 2.7 4.8-.5c.5-.9 4.3 1.2 5.4.1 4.2-4.5-.5-7.6-.5-7.6l-17.7 1.1z"/><path d="M436.6 161.2c-1.1 0-2.1-.6-2.6-1-.9.5-3.6 1.6-7-.2-1.7-.9-2.7-2-2.9-3.4-.4-2.3 1.5-4.2 1.5-4.3l.1-.2L444 151l.2.1c.1.1 2.2 1.5 2.4 3.8.2 1.5-.5 3.1-1.9 4.6-.8.8-2.3.5-3.7.1-.6-.1-1.4-.3-1.7-.3-.6 1-1.3 1.6-2.2 1.7-.2.2-.4.2-.5.2zm-2.5-2.3l.3.3s1.3 1.1 2.5.9c.6-.1 1.1-.5 1.5-1.2.4-.8 1.5-.5 2.8-.2.9.2 2.3.5 2.7.2 1.2-1.3 1.7-2.5 1.6-3.7-.2-1.6-1.4-2.7-1.8-3l-17.3 1.1c-.4.5-1.4 1.8-1.1 3.3.2 1 1 1.9 2.3 2.6 3.5 1.8 6.1.1 6.2 0l.3-.3z"/><path class="st0" d="M466.4 149.3s-3.8 7 1.4 8.6 5.7-2.4 5.7-2.4 4.8 3.2 5.5-2.4c3.3.9 11.3-4.3.9-9.8l-13.5 6z"/><path d="M470 158.9c-.7 0-1.5-.1-2.4-.4-1.3-.4-2.3-1.2-2.7-2.4-1.2-2.9 1-6.8 1.1-7l.1-.2 13.8-6.1.2.1c5.8 3.1 5.7 6 5.2 7.4-.9 2.2-3.8 3.6-5.9 3.4-.3 1.5-.9 2.5-1.9 3-1.3.6-2.8 0-3.7-.4-.2.6-.6 1.4-1.5 1.9-.7.5-1.5.7-2.3.7zm-3.2-9.2c-.4.7-1.8 3.8-.9 6 .3.9 1 1.4 2.1 1.8 1.6.5 2.9.5 3.7-.1 1-.7 1.2-1.9 1.2-1.9l.1-.8.7.5s1.9 1.3 3.3.7c.7-.3 1.2-1.2 1.4-2.7l.1-.6.6.2c1.6.4 4.5-.8 5.2-2.7.7-1.9-.8-4-4.4-6l-13.1 5.6z"/><path class="st0" d="M409.3 95.7s-14.1 27.2-3.3 39.6c10.8 12.4 19.2 20.4 29.5 18.5 10.3-1.9 9.8-4.4 26-4s43.8-19.3 27.3-49.3l-79.5-4.8z"/><path d="M432.5 154.5c-3.9 0-7.8-1.4-11.9-4.3-5.1-3.5-10.2-9.1-15-14.7-4.5-5.2-5.4-13.8-2.5-24.9 2.2-8.3 5.7-15.2 5.7-15.2l.2-.3 80 4.9.1.3c8.3 15.1 5.1 26.5.9 33.4-6.8 11.2-19.9 17-28.6 16.7-10.7-.3-14 .7-18.1 2-2 .6-4.3 1.3-7.7 2-1.1 0-2.1.1-3.1.1zm-22.9-58.3c-1.5 3-13 27.4-3.2 38.7 4.8 5.5 9.9 11 14.8 14.5s9.4 4.7 14.2 3.8c3.4-.6 5.6-1.3 7.6-1.9 4.2-1.3 7.6-2.4 18.5-2.1 8.5.2 21.1-5.3 27.7-16.2 4-6.6 7.1-17.5-.8-32l-78.8-4.8z"/><path class="st1" d="M410.7 99.7s12.2 30.1 35.5 30.1c23.2 0 38.1-15.3 42.8-28.2l-78.3-1.9z"/><path d="M446.2 130.4c-9.7 0-19-5.3-26.9-15.3-5.9-7.5-9.1-15.1-9.1-15.2-.1-.2 0-.4.1-.5.1-.1.3-.2.5-.2l78.3 1.9c.2 0 .3.1.4.2.1.1.1.3.1.5-2.6 7.1-7.9 14.1-14.6 19.2-8.3 6.2-18.2 9.4-28.8 9.4zm-34.7-30.1c.9 2.1 3.9 8.2 8.6 14.2 5.4 6.8 14.2 14.8 26 14.8 10.4 0 20.1-3.2 28-9.2 6.3-4.8 11.4-11.3 14-18l-76.6-1.8z"/><path class="st0" d="M408.8 94.6s12.8 33.6 41.4 30.6 49.1-26.8 34.5-39.6l-4-26.1-13.3-10.7-51 12.1-9.8 12.4 2.2 21.3z"/><path d="M446.6 125.9c-5.3 0-10.4-1.3-15.2-3.8-4.7-2.4-9.1-6.1-13-10.8-6.8-8-10-16.5-10.1-16.6v-.2L406.1 73l10-12.8L467.6 48l13.7 11 4 26.1c4.4 4 5.9 9.4 4 15.2-1.8 5.8-6.7 11.5-13.6 16.2-7.3 4.9-16.3 8.1-25.4 9.1-1.3.2-2.5.3-3.7.3zm-37.3-31.4c.3.8 3.5 8.7 9.9 16.2 3.9 4.6 8.2 8.1 12.7 10.5 5.7 3 11.8 4.1 18.2 3.4 9-1 17.8-4.1 25-8.9 6.7-4.5 11.4-10.1 13.2-15.6 1.7-5.5.4-10.4-3.9-14.2l-.1-.1-4-26.1-13-10.4-50.6 12-9.5 12.1 2.1 21.1z"/><path class="st2" d="M422.5 62.1s-7.4-8.8-10.2-6c-2.8 2.8-2.3 5.5-7.3 6.6-12.2 2.6.7 34-4 37 0 0 16.8-9.4 14.7-15.2-2.4-6.7.9-16.6.9-16.6l5.9-5.8z"/><path d="M401.1 100.2c-.2 0-.4-.1-.5-.3-.1-.2-.1-.6.2-.7 1.5-1 .6-6.9-.2-12.6-1.6-10.2-3.5-22.8 4.4-24.5 3.1-.6 3.9-1.9 4.9-3.6.5-.9 1.1-1.8 2.1-2.8.5-.5 1.1-.7 1.9-.7 1.5.1 3.5 1.2 5.9 3.5 1.8 1.6 3.1 3.2 3.1 3.3.2.2.2.5 0 .7l-5.6 5.6c-.4 1.1-3.1 10.1-.9 16.1 1 2.7-1.3 6.2-6.8 10.4-3.9 3.1-8.2 5.4-8.2 5.5-.2.1-.2.1-.3.1zm12.6-44c-.4 0-.7.1-1 .4-.9.9-1.4 1.8-2 2.6-1.1 1.7-2 3.3-5.6 4.1-6.9 1.5-5.1 13.5-3.6 23.3.8 5.5 1.4 9.5.9 11.7 5.2-3.1 14.2-9.6 12.8-13.6-1-2.9-1.2-6.6-.5-11.1.5-3.3 1.4-5.8 1.4-5.9 0-.1.1-.1.1-.2l5.4-5.4c-1.6-1.9-5.5-5.8-7.9-5.9zM428.4 134.6c-.1 0-.2 0-.2-.1-8.1-4.2-12.7-13.8-15-21.2-2.5-7.9-3.2-14.9-3.2-15 0-.3.2-.6.5-.6s.6.2.6.5 2.6 27.6 17.6 35.3c.3.1.4.5.2.7-.1.3-.3.4-.5.4zM482.2 124.5c-.1 0-.3-.1-.4-.2-.2-.2-.2-.6 0-.8 7.7-6.8 8.1-19.3 8.1-19.4 0-.3.3-.5.5-.5.3 0 .5.3.5.5 0 .5-.5 13.1-8.5 20.2.1.2 0 .2-.2.2z"/><path class="st0" d="M403 129.9s-4.9 8.2 0 11.8c4.9 3.6 7.7-1.1 7.7-1.1l-7.7-10.7z"/><path d="M406.5 143.6c-1.3 0-2.6-.5-3.9-1.5-2.2-1.6-2.9-4.3-2-7.8.6-2.5 1.8-4.6 1.9-4.7l.4-.7 8.4 11.6-.2.3c-.1.1-1.3 2.2-3.7 2.7-.3 0-.6.1-.9.1zm-3.5-12.7c-1 2-3.4 7.7.3 10.4 1.4 1 2.7 1.4 4 1.2 1.4-.3 2.4-1.4 2.8-1.9l-7.1-9.7z"/><path class="st2" d="M450.4 95.7s5.4 6 16.6 2.7-.8 14.5-7 17.9-26.5 5.8-36.5-8.8c-6.1-9 16.6-1.2 19.4-10.5"/><path d="M447.2 119.3c-8.3 0-18.1-2.7-24.1-11.6-1.1-1.6-1.4-2.8-.9-3.8.9-1.8 3.9-2 7.8-2.2 5.2-.3 11.2-.7 12.4-5 .1-.3.4-.4.7-.4.3.1.4.4.4.7-1.5 5-8.1 5.4-13.4 5.7-3.3.2-6.3.4-6.9 1.6-.3.6 0 1.5.8 2.7 9.7 14.3 29.5 12 35.8 8.7 2.2-1.2 5.4-4.4 7.9-8 2.6-3.7 3.9-7.1 3.3-8.4-.5-1.1-2.3-.8-3.8-.4-11.4 3.4-16.9-2.6-17.2-2.8-.2-.2-.2-.6 0-.8.2-.2.6-.2.8 0 .2.2 5.3 5.7 16.1 2.5 1.9-.6 4.3-.9 5.1 1 1.6 4-7 15.3-11.7 17.8-2.7 1.5-7.5 2.7-13.1 2.7z"/><path class="st2" d="M424.4 107.8s7.9 5.7 15.8 6c7.9.3 24.3.8 29.6-10.4l-45.4 4.4z"/><path class="st3" d="M460.7 109.4c7.9 9.8-6.6 13.8-16.9 12.9s-4.3-11.1-4.3-11.1l4.7-7.8 6.1-1.5 10.4 7.5z"/><path d="M446.9 123c-1.1 0-2.1 0-3.1-.1-3-.3-5-1.4-5.9-3.2-1.8-3.5 1.1-8.5 1.3-8.7l4.8-8 6.6-1.6 10.6 7.8v.1c2.4 3 3 5.7 1.8 8-2.2 3.7-9.3 5.7-16.1 5.7zm-2.3-19.2l-4.6 7.6s-2.7 4.7-1.2 7.7c.8 1.5 2.5 2.4 5.1 2.6 7 .7 16-1.1 18.1-5.1 1-1.9.5-4.2-1.6-6.8l-10-7.4-5.8 1.4z"/><path class="st2" d="M464.5 85.6c-1.3-1.5-5.3-9.7.6-11.5 5.9-1.8 9.1-.6 10 1.2 2.5 4.9-1.1 9.2-1.9 9.7l-8.7.6z"/><path class="st4" d="M448.7 119.7c-2.1-6.1-.7-14-.7-14.3l1.1.2c0 .1-1.4 7.9.6 13.7l-1 .4z"/><path class="st2" d="M447.5 99.8s3.4 12.7-7.9 11.4c-11.2-1.2-16-3.8-16-3.8"/><path d="M441 111.8c-.5 0-1 0-1.5-.1-11.1-1.2-16-3.8-16.2-3.9-.3-.1-.4-.5-.2-.7.1-.3.5-.4.7-.2 0 0 4.9 2.6 15.8 3.8 2.9.3 5-.3 6.3-1.8 2.6-3.1 1.1-8.9 1.1-9-.1-.3.1-.6.4-.7.3-.1.6.1.7.4.1.3 1.7 6.5-1.3 10-1.4 1.5-3.3 2.2-5.8 2.2z"/><path class="st2" d="M430.9 88.4s4.8-13.3-8.4-11.8c-8.9 1-1.3 11.4-1.3 11.4l9.7.4zM471.4 101.5c-9.1 10.9-21.9 11.9-23.5 1.9l-.6-5 3.6-2.2s5 5.2 16.1 2.2c7.9-2.2 4.4 3.1 4.4 3.1z"/><path d="M456 110.9c-.9 0-1.9-.1-2.7-.4-3.2-.9-5.3-3.4-5.8-7.1l-.6-5c0-.2.1-.4.2-.5l3.6-2.2c.2-.1.5-.1.7.1 0 0 5 5 15.6 2.1 2.9-.8 4.7-.7 5.5.3 1 1.3-.3 3.4-.5 3.6v.1c-4.9 5.6-10.9 9-16 9zm-8.1-12.3l.6 4.7c.5 3.3 2.3 5.4 5.1 6.2 5.1 1.4 12.1-1.9 17.5-8.3.3-.5.9-1.8.5-2.4-.2-.3-1-.8-4.3.1-9.9 2.7-15-1-16.3-2.1l-3.1 1.8z"/><circle cx="425.8" cy="85.6" r="5"/><path d="M425.8 91.1c-3.1 0-5.6-2.5-5.6-5.6 0-3.1 2.5-5.6 5.6-5.6 3.1 0 5.6 2.5 5.6 5.6 0 3.1-2.5 5.6-5.6 5.6zm0-10c-2.5 0-4.5 2-4.5 4.5s2 4.5 4.5 4.5 4.5-2 4.5-4.5-2-4.5-4.5-4.5z"/><circle cx="468.6" cy="81.9" r="5"/><path d="M468.6 87.5c-3.1 0-5.6-2.5-5.6-5.6 0-3.1 2.5-5.6 5.6-5.6s5.6 2.5 5.6 5.6c0 3.1-2.5 5.6-5.6 5.6zm0-10.1c-2.5 0-4.5 2-4.5 4.5s2 4.5 4.5 4.5 4.5-2 4.5-4.5-2-4.5-4.5-4.5zM426.5 91.1c-.2 0-.5-.2-.5-.4-.1-.3.1-.6.4-.6 0 0 2.3-.5 4.4-2 2.7-1.9 4-4.4 3.7-7.5-.3-2.7-1.6-4.6-4-5.8-1.8-.9-3.5-1-3.5-1-.3 0-.5-.3-.5-.6s.3-.5.6-.5c.1 0 7.8.5 8.5 7.7.9 8.3-8.8 10.6-8.9 10.6l-.2.1z"/><path class="st2" d="M478.3 87.3s9.6 3.1 15-9.7c5.4-12.8 13.1-17.6-9.6-24.3-22.7-6.7 6.7 12.9-5.4 34z"/><path d="M480.9 88.2c-1.6 0-2.7-.3-2.8-.4-.2 0-.3-.2-.3-.3-.1-.2 0-.3 0-.5 6.1-10.5 1.5-20.7-1.5-27.4-1.7-3.7-2.7-6.1-1.6-7.4 1-1.2 3.7-1 9.1.6 9.3 2.8 13.9 5.3 15.3 8.5 1.3 3-.4 6.4-2.6 10.7-.9 1.7-1.9 3.7-2.8 5.8-1.6 3.8-4.6 8.5-9.9 9.9-1 .4-2.1.5-2.9.5zm-1.8-1.3c2.2.4 9.3.9 13.7-9.5.9-2.2 1.9-4.1 2.8-5.9 2.1-4.2 3.7-7.2 2.5-9.8-1.2-2.8-5.7-5.2-14.6-7.9-4.6-1.4-7.3-1.7-8-.9-.7.8.4 3.3 1.8 6.3 3 6.8 7.6 16.9 1.8 27.7zM467.9 87.5c-2 0-7.3-.6-10-6.7-.9-2.1-1-4.2-.3-6.1 1.5-3.6 5.5-5.3 5.7-5.4.3-.1.6 0 .7.3.1.3 0 .6-.3.7 0 0-3.8 1.6-5.1 4.8-.6 1.6-.6 3.4.3 5.2 1.3 2.9 3.3 4.8 6 5.6 2 .6 3.6.4 3.7.4.3 0 .6.2.6.5s-.2.6-.5.6c0 .1-.3.1-.8.1z"/><g><path class="st5" d="M421.9 48.1s-4.1-21.1 10.3-29.6 25.4 4 25 11.7c0 0-4.8-7.7-11.3 2.7 0 0 5.9-3.5 10.4 2.9 0 0 7.2-1.6 9.9 6.4 0 0 14.4 4.3 11.7 19.2 0 0-4.7-10.8-15.3-8-10.6 2.9-8.4 6.4-11.9 14.7s-5.9 10-15.3 1.2c-9.5-8.8-19.6-5.1-20.4 7.5 0 .1-9.2-27.4 6.9-28.7z"/><path d="M415 77.4c-.2 0-.4-.1-.5-.4-.2-.7-5.7-17.1-.3-25.2 1.6-2.4 4-3.8 7.1-4.2-.2-1.5-.8-6-.2-11.2 1-8.5 4.8-14.8 10.9-18.4 8.4-5 14.9-2.5 18-.6 4.8 2.9 8.1 8.3 7.8 12.9 0 .2-.2.4-.4.5-.2.1-.5 0-.6-.2 0 0-1.6-2.5-4-2.5-1.8 0-3.6 1.3-5.4 3.8.6-.2 1.3-.3 2.1-.3 1.9-.1 4.7.6 7.1 3.8 2.7-.5 7.9.4 10 6.6.9.3 4 1.5 6.8 4 3.1 2.8 6.4 7.7 5 15.7 0 .2-.2.4-.5.4-.2 0-.5-.1-.6-.3-.2-.4-4.7-10.4-14.7-7.6-7.7 2.1-8.4 4.4-9.7 9-.5 1.5-1 3.3-1.8 5.3-1.8 4.2-3.3 6.7-5.6 7.2-2.4.5-5.5-1.2-10.5-5.9-4.5-4.1-9.3-5.6-13.1-4.1-3.7 1.5-6 5.6-6.3 11.2-.1.3-.3.5-.6.5zM425 64c3.4 0 7.2 1.7 10.7 5 4.7 4.4 7.6 6 9.6 5.6 1.9-.4 3.3-2.8 4.9-6.6.8-2 1.4-3.7 1.8-5.2 1.4-4.7 2.2-7.5 10.5-9.7 8.4-2.3 13.3 3.9 15.1 6.8.5-5.3-1.1-9.7-4.9-13.1-3.1-2.8-6.6-3.9-6.7-3.9-.2-.1-.3-.2-.4-.3-2.4-7.4-9-6.1-9.2-6-.2 0-.4 0-.6-.2-1.8-2.5-3.9-3.7-6.4-3.6-1.9.1-3.2.9-3.3.9-.2.1-.5.1-.7-.1-.2-.2-.2-.4-.1-.7 2.3-3.8 4.8-5.7 7.2-5.7 1.7 0 3.1.9 3.9 1.8-.5-3.8-3.4-8-7.3-10.4-5-3-11-2.8-16.9.6-5.8 3.4-9.3 9.4-10.3 17.6-.8 6.2.2 11.4.3 11.5 0 .1 0 .3-.1.4-.1.1-.2.2-.4.2-3.1.2-5.4 1.5-6.9 3.8-3.9 5.8-1.6 16.8-.3 21.8.8-4.7 3.2-8.1 6.7-9.5 1.4-.7 2.6-1 3.8-1z"/></g><g><ellipse transform="rotate(169.052 446.84 96.542)" class="st2" cx="446.8" cy="96.5" rx="4.6" ry="3.3"/><path d="M446.2 100.4c-.9 0-1.7-.2-2.4-.5-1.1-.5-1.9-1.4-2.1-2.4-.2-1 .2-2.1 1-3 .8-.9 2-1.5 3.3-1.7 1.3-.3 2.6-.1 3.7.4s1.9 1.4 2.1 2.4c.4 2.1-1.5 4.2-4.3 4.7-.4.1-.8.1-1.3.1zm1.2-6.7c-.4 0-.7 0-1.1.1-1.1.2-2.1.7-2.7 1.4-.6.6-.9 1.4-.7 2.1.1.7.7 1.3 1.5 1.6.9.4 2 .5 3.1.3 2.2-.4 3.8-2 3.5-3.5-.1-.7-.7-1.3-1.5-1.6-.7-.2-1.4-.4-2.1-.4z"/></g><circle class="st6" cx="423.8" cy="83" r=".9"/><circle class="st6" cx="445.2" cy="95.6" r=".6"/><circle class="st6" cx="466" cy="80.6" r=".9"/><g><path class="st1" d="M464 125.4s-8.1 5-4.3 14.7c.1-.1 6.5-.3 4.3-14.7z"/><path d="M459.4 140.6l-.1-.4c-3.9-9.9 4.4-15.3 4.5-15.3l.7-.4.1.8c1 6.4.4 11-1.7 13.5-1.4 1.7-3 1.8-3.1 1.8h-.4zm4.2-14.3c-1.8 1.4-6.2 5.8-3.5 13.1.4-.1 1.2-.5 2-1.4 1.2-1.5 2.4-4.7 1.5-11.7z"/></g><g><path class="st1" d="M467.1 140.2s5.7-3-2.5-15.1c0 .1-5.1 8.1 2.5 15.1"/><path d="M467 140.9l-.3-.3c-7.8-7.3-2.6-15.7-2.6-15.7l.4-.7.5.7c3.6 5.4 5.1 9.7 4.3 12.9-.5 2.2-2 2.9-2 3l-.3.1zm-2.4-14.7c-1 2-3.1 7.9 2.5 13.4.4-.3.9-.9 1.2-2.1.5-1.9.2-5.4-3.7-11.3z"/></g><ellipse transform="rotate(163.496 444.956 98.36)" cx="445" cy="98.4" rx=".8" ry="1.1"/><ellipse cx="449.2" cy="97.7" rx=".8" ry="1.1"/><g><path class="st1" d="M466 120.7c-3.5 0-6.6 1.9-5.1 4.1 1.5 2.2 4 3.8 6 2.8s-.9-6.9-.9-6.9z"/><path d="M465.5 128.5c-1.6 0-3.5-1-5.1-3.3-.6-.8-.6-1.7-.2-2.5.8-1.4 3.1-2.5 5.8-2.5h.3l.1.3c0 .1.8 1.5 1.2 3.1.7 2.4.5 3.9-.6 4.5-.4.2-.9.4-1.5.4zm.1-7.2c-2.1.1-3.9.9-4.5 1.9-.2.4-.2.9.2 1.4 1.3 1.9 3.5 3.5 5.3 2.6 1-.6.1-3.8-1-5.9z"/></g><path class="st6" d="M439.2 19.1s-18.9 6.2-14.4 29.7c0 0-.3-9.2 3.7-14.8 0 0-1.5 13.4 1 20 0 0-1.2-10.8 4.3-21 0 0-2.6 6.2 2.1 15.8 0 0-1.5-7.5 3.4-12.3 0 0-2 6.9 3.1 12.3 0 0-2-22.9 10.1-23.1 0 0-6.8-1.6-11.7 5.7 0 0-2-8.2 6.5-12.3 0 0-7 .2-13.1 11.6-.2 0-2.1-7.5 5-11.6zM452.3 36.5s-6.4 2.5-4.2 14c0 0 .8-4.4 3.3-7 0 0-1.4 4.9 1.6 10.4 0 0-.5-2.1 2-3.6 0 0-.3 2.1 1.1 3.6 0 0-1.1-10.8 7.5-13.3 0 0-6.6-.4-9.3 4.6 0 0 .6-6.2 4.4-7.1 0 0-5.2-1.6-8.9 4.6 0 0 .4-3.4 2.5-6.2z"/><path class="st7" d="M444.1 118.6s6.2 2 11.9-.5c.1 0-5.4 5.7-11.9.5z"/><path class="st6" d="M421.9 87.1s1.1 3.1 3.8 3.1 3.9-2.6 3.9-2.6-1.3 2.2-3.9 2.2-3.8-2.7-3.8-2.7zM464.6 83.3s1.2 3.3 4 3.3 4.1-2.8 4.1-2.8-1.4 2.3-4.1 2.3c-2.7 0-4-2.8-4-2.8z"/></g><g><path class="st0" d="M529.4 117.5s-5.5.7-3.7-4c1.9-4.8 5.2-3.1 5.2-3.1l1.6-5.1s-5.1-3.4-11.4 5c-6.3 8.4 3.2 15 8 10.8l.3-3.6z"/><path d="M525.4 122.8c-1.7 0-3.4-.7-4.8-2-1.3-1.2-2.1-2.9-2.2-4.7-.1-2 .6-4.2 2.2-6.3 6.5-8.7 11.9-5.3 12.2-5.1l.3.2-1.9 6.1-.6-.3s-1-.5-2.1-.1c-1 .4-1.8 1.3-2.3 2.8-.4 1.1-.5 2 0 2.5.7.9 2.5.9 3.2.8l.7-.1-.4 4.4-.2.1c-1.2 1.2-2.6 1.7-4.1 1.7zm4.3-17.8c-1.9 0-4.9 1-8.3 5.5-3.1 4.2-2.1 7.7-.1 9.5 1.8 1.7 4.9 2.4 7.2.6l.3-2.7c-.9 0-2.6-.1-3.5-1.2-.7-.9-.7-2.1-.1-3.6.7-1.8 1.7-3 3-3.5.9-.4 1.8-.2 2.3-.1l1.3-4.2c-.4 0-1.1-.3-2.1-.3z"/><path class="st0" d="M553.2 152.7s-4 4.2 1.2 6.9c3.9 2 6.8 0 6.8 0s3 2.7 4.8-.5c.5-.9 4.3 1.2 5.4.1 4.2-4.5-.5-7.6-.5-7.6l-17.7 1.1z"/><path d="M563.8 161.2c-1.1 0-2.1-.6-2.6-1-.9.5-3.6 1.6-7-.2-1.7-.9-2.7-2-2.9-3.4-.4-2.3 1.5-4.2 1.5-4.3l.1-.2 18.2-1.2.2.1c.1.1 2.2 1.5 2.4 3.8.2 1.5-.5 3.1-1.9 4.6-.8.8-2.3.5-3.7.1-.6-.1-1.4-.3-1.7-.3-.6 1-1.3 1.6-2.2 1.7-.1.3-.3.3-.4.3zm-2.5-2.3l.3.3s1.3 1.1 2.5.9c.6-.1 1.1-.5 1.5-1.2.4-.8 1.5-.5 2.8-.2.9.2 2.3.5 2.7.2 1.2-1.3 1.7-2.5 1.6-3.7-.2-1.6-1.4-2.7-1.8-3l-17.3 1.1c-.4.5-1.4 1.8-1.1 3.3.2 1 1 1.9 2.3 2.6 3.5 1.8 6.1.1 6.2 0l.3-.3z"/><path class="st0" d="M593.6 149.3s-3.8 7 1.4 8.6c5.1 1.6 5.7-2.4 5.7-2.4s4.8 3.2 5.5-2.4c3.3.9 11.3-4.3.9-9.8l-13.5 6z"/><path d="M597.1 158.9c-.7 0-1.5-.1-2.4-.4-1.3-.4-2.3-1.2-2.7-2.4-1.2-2.9 1-6.8 1.1-7l.1-.2 13.8-6.1.2.1c5.8 3.1 5.7 6 5.2 7.4-.9 2.2-3.8 3.6-5.9 3.4-.3 1.5-.9 2.5-1.9 3-1.3.6-2.8 0-3.7-.4-.2.6-.6 1.4-1.5 1.9-.6.5-1.4.7-2.3.7zm-3.1-9.2c-.4.7-1.8 3.8-.9 6 .3.9 1 1.4 2.1 1.8 1.6.5 2.9.5 3.7-.1 1-.7 1.2-1.9 1.2-1.9l.1-.8.7.5s1.9 1.3 3.3.7c.7-.3 1.2-1.2 1.4-2.7l.1-.6.6.2c1.6.4 4.5-.8 5.2-2.7.7-1.9-.8-4-4.4-6l-13.1 5.6z"/><path class="st0" d="M536.5 95.7s-14.1 27.2-3.3 39.6 19.2 20.4 29.5 18.5c10.3-1.9 9.8-4.4 26-4 16.1.5 43.8-19.3 27.3-49.3l-79.5-4.8z"/><path d="M559.6 154.5c-3.9 0-7.8-1.4-11.9-4.3-5.1-3.5-10.2-9.1-15-14.7-4.5-5.2-5.4-13.8-2.5-24.9 2.2-8.3 5.7-15.2 5.7-15.2l.2-.3 80.1 4.8.1.3c8.3 15.1 5.1 26.5.9 33.4-6.8 11.2-19.9 17-28.6 16.7-10.7-.3-14 .7-18.1 2-2 .6-4.3 1.3-7.7 2-1.1.1-2.1.2-3.2.2zm-22.8-58.3c-1.5 3-13 27.4-3.2 38.7 4.8 5.5 9.9 11 14.8 14.5s9.4 4.7 14.2 3.8c3.4-.6 5.6-1.3 7.6-1.9 4.2-1.3 7.6-2.4 18.5-2.1 8.5.2 21.1-5.3 27.7-16.2 4-6.6 7.1-17.5-.8-32l-78.8-4.8z"/><path class="st1" d="M537.9 99.7s12.2 30.1 35.5 30.1 38.1-15.3 42.8-28.2l-78.3-1.9z"/><path d="M573.3 130.4c-9.7 0-19-5.3-26.9-15.3-5.9-7.5-9.1-15.1-9.1-15.2-.1-.2 0-.4.1-.5.1-.1.3-.2.5-.2l78.3 1.9c.2 0 .3.1.4.2.1.1.1.3.1.5-2.7 7.2-8 14.2-14.7 19.2-8.1 6.2-18 9.4-28.7 9.4zm-34.6-30.1c.9 2.1 3.9 8.2 8.6 14.2 5.4 6.8 14.2 14.8 26 14.8 10.4 0 20.1-3.2 28-9.2 6.3-4.8 11.4-11.3 14-18l-76.6-1.8z"/><path class="st0" d="M536 94.6s12.8 33.6 41.4 30.6 49.1-26.8 34.5-39.6l-4-26.1-13.3-10.7-51 12.1-9.8 12.4 2.2 21.3z"/><path d="M573.8 125.9c-5.3 0-10.4-1.3-15.2-3.8-4.7-2.4-9.1-6.1-13-10.8-6.8-8-10-16.5-10.1-16.6v-.2L533.3 73l10-12.8L594.8 48l13.7 11 4 26.1c4.4 4 5.9 9.4 4 15.2-1.8 5.8-6.7 11.5-13.6 16.2-7.3 4.9-16.3 8.1-25.4 9.1-1.3.2-2.5.3-3.7.3zm-37.3-31.4c.3.8 3.5 8.7 9.9 16.2 3.9 4.6 8.2 8.1 12.7 10.5 5.7 3 11.8 4.1 18.2 3.4 9-1 17.8-4.1 25-8.9 6.7-4.5 11.4-10.1 13.2-15.6 1.7-5.5.4-10.4-3.9-14.2l-.1-.1-4-26.1-13-10.4-50.6 12-9.5 12.1 2.1 21.1z"/><path class="st2" d="M549.6 62.1s-7.4-8.8-10.2-6c-2.8 2.8-2.3 5.5-7.3 6.6-12.2 2.6.7 34-4 37 0 0 16.8-9.4 14.7-15.2-2.4-6.7.9-16.6.9-16.6l5.9-5.8z"/><path d="M528.2 100.2c-.2 0-.4-.1-.5-.3-.1-.2-.1-.6.2-.7 1.5-1 .6-6.9-.2-12.6-1.6-10.2-3.5-22.8 4.4-24.5 3.1-.6 3.9-1.9 4.9-3.6.5-.9 1.1-1.8 2.1-2.8.5-.5 1.1-.7 1.9-.7 1.5.1 3.5 1.2 5.9 3.5 1.8 1.6 3.1 3.2 3.1 3.3.2.2.2.5 0 .7l-5.6 5.6c-.4 1.1-3.1 10.1-.9 16.1 1 2.7-1.3 6.2-6.8 10.4-3.9 3.1-8.2 5.4-8.2 5.5-.1.1-.2.1-.3.1zm12.7-44c-.4 0-.7.1-1 .4-.9.9-1.4 1.8-2 2.6-1.1 1.7-2 3.3-5.6 4.1-6.9 1.5-5.1 13.5-3.6 23.3.8 5.5 1.4 9.5.9 11.7 5.2-3.1 14.2-9.6 12.8-13.6-1-2.9-1.2-6.6-.5-11.1.5-3.3 1.4-5.8 1.4-5.9 0-.1.1-.1.1-.2l5.4-5.4c-1.6-1.9-5.5-5.8-7.9-5.9zM555.6 134.6c-.1 0-.2 0-.2-.1-8.1-4.2-12.7-13.8-15-21.2-2.5-7.9-3.2-14.9-3.2-15 0-.3.2-.6.5-.6s.6.2.6.5 2.6 27.6 17.6 35.3c.3.1.4.5.2.7-.1.3-.3.4-.5.4zM609.4 124.5c-.1 0-.3-.1-.4-.2-.2-.2-.2-.6 0-.8 7.7-6.8 8.1-19.3 8.1-19.4 0-.3.3-.5.5-.5.3 0 .5.3.5.5 0 .5-.5 13.1-8.5 20.2.1.2-.1.2-.2.2z"/><path class="st0" d="M530.1 129.9s-4.9 8.2 0 11.8 7.7-1.1 7.7-1.1l-7.7-10.7z"/><path d="M533.7 143.6c-1.3 0-2.6-.5-3.9-1.5-2.2-1.6-2.9-4.3-2-7.8.6-2.5 1.8-4.6 1.9-4.7l.4-.7 8.4 11.6-.2.3c-.1.1-1.3 2.2-3.7 2.7-.3 0-.6.1-.9.1zm-3.5-12.7c-1 2-3.4 7.7.3 10.4 1.4 1 2.7 1.4 4 1.2 1.4-.3 2.4-1.4 2.8-1.9l-7.1-9.7z"/><path class="st2" d="M577.6 95.7s5.4 6 16.6 2.7-.8 14.5-7 17.9c-6.3 3.4-26.5 5.8-36.5-8.8-6.1-9 16.6-1.2 19.4-10.5"/><path d="M574.4 119.3c-8.3 0-18.1-2.7-24.1-11.6-1.1-1.6-1.4-2.8-.9-3.8.9-1.8 3.9-2 7.8-2.2 5.2-.3 11.2-.7 12.4-5 .1-.3.4-.4.7-.4.3.1.4.4.4.7-1.5 5-8.1 5.4-13.4 5.7-3.3.2-6.3.4-6.9 1.6-.3.6 0 1.5.8 2.7 9.7 14.3 29.5 12 35.8 8.7 2.2-1.2 5.4-4.4 7.9-8 2.6-3.7 3.9-7.1 3.3-8.4-.5-1.1-2.3-.8-3.8-.4-11.4 3.4-16.9-2.6-17.2-2.8-.2-.2-.2-.6 0-.8.2-.2.6-.2.8 0 .2.2 5.3 5.7 16.1 2.5 1.9-.6 4.3-.9 5.1 1 1.6 4-7 15.3-11.7 17.8-2.7 1.5-7.6 2.7-13.1 2.7z"/><path class="st2" d="M551.6 107.8s7.9 5.7 15.8 6c7.9.3 24.3.8 29.6-10.4l-45.4 4.4z"/><path class="st3" d="M587.9 109.4c7.9 9.8-6.6 13.8-16.9 12.9-10.3-1-4.3-11.1-4.3-11.1l4.7-7.8 6.1-1.5 10.4 7.5z"/><path d="M574.1 123c-1.1 0-2.1 0-3.1-.1-3-.3-5-1.4-5.9-3.2-1.8-3.5 1.1-8.5 1.3-8.7l4.8-8 6.6-1.6 10.6 7.8v.1c2.4 3 3 5.7 1.8 8-2.2 3.7-9.4 5.7-16.1 5.7zm-2.3-19.2l-4.6 7.6s-2.7 4.7-1.2 7.7c.8 1.5 2.5 2.4 5.1 2.6 7 .7 16-1.1 18.1-5.1 1-1.9.5-4.2-1.6-6.8l-10-7.4-5.8 1.4z"/><path class="st2" d="M591.6 85.6c-1.3-1.5-5.3-9.7.6-11.5 5.9-1.8 9.1-.6 10 1.2 2.5 4.9-1.1 9.2-1.9 9.7l-8.7.6z"/><path class="st4" d="M575.8 119.7c-2.1-6.1-.7-14-.7-14.3l1.1.2c0 .1-1.4 7.9.6 13.7l-1 .4z"/><path class="st2" d="M574.6 99.8s3.4 12.7-7.9 11.4c-11.2-1.2-16-3.8-16-3.8"/><path d="M568.2 111.8c-.5 0-1 0-1.5-.1-11.1-1.2-16-3.8-16.2-3.9-.3-.1-.4-.5-.2-.7.1-.3.5-.4.7-.2 0 0 4.9 2.6 15.8 3.8 2.9.3 5-.3 6.3-1.8 2.6-3.1 1.1-8.9 1.1-9-.1-.3.1-.6.4-.7.3-.1.6.1.7.4.1.3 1.7 6.5-1.3 10-1.4 1.5-3.3 2.2-5.8 2.2z"/><path class="st2" d="M558.1 88.4s4.8-13.3-8.4-11.8c-8.9 1-1.3 11.4-1.3 11.4l9.7.4zM598.6 101.5c-9.1 10.9-21.9 11.9-23.5 1.9l-.6-5 3.6-2.2s5 5.2 16.1 2.2c7.8-2.2 4.4 3.1 4.4 3.1z"/><path d="M583.1 110.9c-.9 0-1.9-.1-2.7-.4-3.2-.9-5.3-3.4-5.8-7.1l-.6-5c0-.2.1-.4.2-.5l3.6-2.2c.2-.1.5-.1.7.1 0 0 5 5 15.6 2.1 2.9-.8 4.7-.7 5.5.3 1 1.3-.3 3.4-.5 3.6v.1c-4.8 5.6-10.9 9-16 9zm-8-12.3l.6 4.7c.5 3.3 2.3 5.4 5.1 6.2 5.1 1.4 12.1-1.9 17.5-8.3.3-.5.9-1.8.5-2.4-.2-.3-1-.8-4.3.1-9.9 2.7-15-1-16.3-2.1l-3.1 1.8z"/><circle cx="553" cy="85.6" r="5"/><path d="M553 91.1c-3.1 0-5.6-2.5-5.6-5.6 0-3.1 2.5-5.6 5.6-5.6 3.1 0 5.6 2.5 5.6 5.6 0 3.1-2.5 5.6-5.6 5.6zm0-10c-2.5 0-4.5 2-4.5 4.5s2 4.5 4.5 4.5 4.5-2 4.5-4.5-2-4.5-4.5-4.5z"/><circle cx="595.8" cy="81.9" r="5"/><path d="M595.8 87.5c-3.1 0-5.6-2.5-5.6-5.6 0-3.1 2.5-5.6 5.6-5.6 3.1 0 5.6 2.5 5.6 5.6 0 3.1-2.5 5.6-5.6 5.6zm0-10.1c-2.5 0-4.5 2-4.5 4.5s2 4.5 4.5 4.5 4.5-2 4.5-4.5-2-4.5-4.5-4.5zM553.6 91.1c-.2 0-.5-.2-.5-.4-.1-.3.1-.6.4-.6 0 0 2.3-.5 4.4-2 2.7-1.9 4-4.4 3.7-7.5-.3-2.7-1.6-4.6-4-5.8-1.8-.9-3.5-1-3.5-1-.3 0-.5-.3-.5-.6s.3-.5.6-.5c.1 0 7.8.5 8.5 7.7.9 8.3-8.8 10.6-8.9 10.6-.1.1-.1.1-.2.1z"/><path class="st2" d="M605.4 87.3s9.6 3.1 15-9.7c5.4-12.8 13.1-17.6-9.6-24.3-22.7-6.7 6.8 12.9-5.4 34z"/><path d="M608 88.2c-1.6 0-2.7-.3-2.8-.4-.2 0-.3-.2-.3-.3-.1-.2 0-.3 0-.5 6.1-10.5 1.5-20.7-1.5-27.4-1.7-3.7-2.7-6.1-1.6-7.4 1-1.2 3.7-1 9.1.6 9.3 2.8 13.9 5.3 15.3 8.5 1.3 3-.4 6.4-2.6 10.7-.9 1.7-1.9 3.7-2.8 5.8-1.6 3.8-4.6 8.5-9.9 9.9-1 .4-2 .5-2.9.5zm-1.7-1.3c2.2.4 9.3.9 13.7-9.5.9-2.2 1.9-4.1 2.8-5.9 2.1-4.2 3.7-7.2 2.5-9.8-1.2-2.8-5.7-5.2-14.6-7.9-4.6-1.4-7.3-1.7-8-.9-.7.8.4 3.3 1.8 6.3 3 6.8 7.6 16.9 1.8 27.7zM595.1 87.5c-2 0-7.3-.6-10-6.7-.9-2.1-1-4.2-.3-6.1 1.5-3.6 5.5-5.3 5.7-5.4.3-.1.6 0 .7.3.1.3 0 .6-.3.7 0 0-3.8 1.6-5.1 4.8-.6 1.6-.6 3.4.3 5.2 1.3 2.9 3.3 4.8 6 5.6 2 .6 3.6.4 3.7.4.3 0 .6.2.6.5s-.2.6-.5.6c0 .1-.3.1-.8.1z"/><g><path class="st5" d="M549 48.1s-4.1-21.1 10.3-29.6c14.5-8.5 25.4 4 25 11.7 0 0-4.8-7.7-11.3 2.7 0 0 5.9-3.5 10.4 2.9 0 0 7.2-1.6 9.9 6.4 0 0 14.4 4.3 11.7 19.2 0 0-4.7-10.8-15.3-8-10.6 2.9-8.4 6.4-11.9 14.7s-5.9 10-15.3 1.2c-9.5-8.8-19.6-5.1-20.4 7.5.1.1-9.1-27.4 6.9-28.7z"/><path d="M542.2 77.4c-.2 0-.4-.1-.5-.4-.2-.7-5.7-17.1-.3-25.2 1.6-2.4 4-3.8 7.1-4.2-.2-1.5-.8-6-.2-11.2 1-8.5 4.8-14.8 10.9-18.4 8.4-5 14.9-2.5 18-.6 4.8 2.9 8.1 8.3 7.8 12.9 0 .2-.2.4-.4.5-.2.1-.5 0-.6-.2 0 0-1.6-2.5-4-2.5-1.8 0-3.6 1.3-5.4 3.8.6-.2 1.3-.3 2.1-.3 1.9-.1 4.7.6 7.1 3.8 2.7-.5 7.9.4 10 6.6.9.3 4 1.5 6.8 4 3.1 2.8 6.4 7.7 5 15.7 0 .2-.2.4-.5.4-.2 0-.5-.1-.6-.3-.2-.4-4.7-10.4-14.7-7.6-7.7 2.1-8.4 4.4-9.7 9-.5 1.5-1 3.3-1.8 5.3-1.8 4.2-3.3 6.7-5.6 7.2-2.4.5-5.5-1.2-10.5-5.9-4.5-4.1-9.3-5.6-13.1-4.1-3.7 1.5-6 5.6-6.3 11.2-.1.3-.3.5-.6.5zm10-13.4c3.4 0 7.2 1.7 10.7 5 4.7 4.4 7.6 6 9.6 5.6 1.9-.4 3.3-2.8 4.9-6.6.8-2 1.4-3.7 1.8-5.2 1.4-4.7 2.2-7.5 10.5-9.7 8.4-2.3 13.3 3.9 15.1 6.8.5-5.3-1.1-9.7-4.9-13.1-3.1-2.8-6.6-3.9-6.7-3.9-.2-.1-.3-.2-.4-.3-2.4-7.4-9-6.1-9.2-6-.2 0-.4 0-.6-.2-1.8-2.5-3.9-3.7-6.4-3.6-1.9.1-3.2.9-3.3.9-.2.1-.5.1-.7-.1-.2-.2-.2-.4-.1-.7 2.3-3.8 4.8-5.7 7.2-5.7 1.7 0 3.1.9 3.9 1.8-.5-3.8-3.4-8-7.3-10.4-5-3-11-2.8-16.9.6-5.8 3.4-9.3 9.4-10.3 17.6-.8 6.2.2 11.4.3 11.5 0 .1 0 .3-.1.4-.1.1-.2.2-.4.2-3.1.2-5.4 1.5-6.9 3.8-3.9 5.8-1.6 16.8-.3 21.8.8-4.7 3.2-8.1 6.7-9.5 1.4-.7 2.6-1 3.8-1z"/></g><g><ellipse transform="rotate(169.052 574.02 96.54)" class="st2" cx="574" cy="96.5" rx="4.6" ry="3.3"/><path d="M573.4 100.4c-.9 0-1.7-.2-2.4-.5-1.1-.5-1.9-1.4-2.1-2.4-.2-1 .2-2.1 1-3 .8-.9 2-1.5 3.3-1.7 1.3-.3 2.6-.1 3.7.4s1.9 1.4 2.1 2.4c.4 2.1-1.5 4.2-4.3 4.7-.4.1-.8.1-1.3.1zm1.2-6.7c-.4 0-.7 0-1.1.1-1.1.2-2.1.7-2.7 1.4-.6.6-.9 1.4-.7 2.1.1.7.7 1.3 1.5 1.6.9.4 2 .5 3.1.3 2.2-.4 3.8-2 3.5-3.5-.1-.7-.7-1.3-1.5-1.6-.7-.2-1.4-.4-2.1-.4z"/></g><circle class="st6" cx="551" cy="83" r=".9"/><circle class="st6" cx="572.4" cy="95.6" r=".6"/><circle class="st6" cx="593.1" cy="80.6" r=".9"/><g><path class="st1" d="M591.2 125.4s-8.1 5-4.3 14.7c0-.1 6.5-.3 4.3-14.7z"/><path d="M586.6 140.6l-.1-.4c-3.9-9.9 4.4-15.3 4.5-15.3l.7-.4.1.8c1 6.4.4 11-1.7 13.5-1.4 1.7-3 1.8-3.1 1.8h-.4zm4.2-14.3c-1.8 1.4-6.2 5.8-3.5 13.1.4-.1 1.2-.5 2-1.4 1.2-1.5 2.4-4.7 1.5-11.7z"/></g><g><path class="st1" d="M594.2 140.2s5.7-3-2.5-15.1c.1.1-5.1 8.1 2.5 15.1"/><path d="M594.2 140.9l-.3-.3c-7.8-7.3-2.6-15.7-2.6-15.7l.4-.7.5.7c3.6 5.4 5.1 9.7 4.3 12.9-.5 2.2-2 2.9-2 3l-.3.1zm-2.4-14.7c-1 2-3.1 7.9 2.5 13.4.4-.3.9-.9 1.2-2.1.4-1.9.1-5.4-3.7-11.3z"/></g><ellipse transform="rotate(163.496 572.134 98.36)" cx="572.1" cy="98.4" rx=".8" ry="1.1"/><ellipse cx="576.3" cy="97.7" rx=".8" ry="1.1"/><g><path class="st1" d="M593.1 120.7c-3.5 0-6.6 1.9-5.1 4.1s4 3.8 6 2.8-.9-6.9-.9-6.9z"/><path d="M592.7 128.5c-1.6 0-3.5-1-5.1-3.3-.6-.8-.6-1.7-.2-2.5.8-1.4 3.1-2.5 5.8-2.5h.3l.1.3c0 .1.8 1.5 1.2 3.1.7 2.4.5 3.9-.6 4.5-.4.2-.9.4-1.5.4zm.1-7.2c-2.1.1-3.9.9-4.5 1.9-.2.4-.2.9.2 1.4 1.3 1.9 3.5 3.5 5.3 2.6 1-.6 0-3.8-1-5.9z"/></g><path class="st6" d="M566.4 19.1s-18.9 6.2-14.4 29.7c0 0-.3-9.2 3.7-14.8 0 0-1.5 13.4 1 20 0 0-1.2-10.8 4.3-21 0 0-2.6 6.2 2.1 15.8 0 0-1.5-7.5 3.4-12.3 0 0-2 6.9 3.1 12.3 0 0-2-22.9 10.1-23.1 0 0-6.8-1.6-11.7 5.7 0 0-2-8.2 6.5-12.3 0 0-7 .2-13.1 11.6-.2 0-2.2-7.5 5-11.6zM579.5 36.5s-6.4 2.5-4.2 14c0 0 .8-4.4 3.3-7 0 0-1.4 4.9 1.6 10.4 0 0-.5-2.1 2-3.6 0 0-.3 2.1 1.1 3.6 0 0-1.1-10.8 7.5-13.3 0 0-6.6-.4-9.3 4.6 0 0 .6-6.2 4.4-7.1 0 0-5.2-1.6-8.9 4.6 0 0 .4-3.4 2.5-6.2z"/><path class="st7" d="M571.3 118.6s6.2 2 11.9-.5c0 0-5.4 5.7-11.9.5z"/><path class="st6" d="M549.1 87.1s1.1 3.1 3.8 3.1c2.7 0 3.9-2.6 3.9-2.6s-1.3 2.2-3.9 2.2c-2.5 0-3.8-2.7-3.8-2.7zM591.8 83.3s1.2 3.3 4 3.3 4.1-2.8 4.1-2.8-1.4 2.3-4.1 2.3c-2.7 0-4-2.8-4-2.8z"/></g><g><path class="st0" d="M656.5 117.5s-5.5.7-3.7-4c1.9-4.8 5.2-3.1 5.2-3.1l1.6-5.1s-5.1-3.4-11.4 5c-6.3 8.4 3.2 15 8 10.8l.3-3.6z"/><path d="M652.6 122.8c-1.7 0-3.4-.7-4.8-2-1.3-1.2-2.1-2.9-2.2-4.7-.1-2 .6-4.2 2.2-6.3 6.5-8.7 11.9-5.3 12.2-5.1l.3.2-1.9 6.1-.6-.3s-1-.5-2.1-.1c-1 .4-1.8 1.3-2.3 2.8-.4 1.1-.5 2 0 2.5.7.9 2.5.9 3.2.8l.7-.1-.4 4.4-.2.1c-1.3 1.2-2.7 1.7-4.1 1.7zm4.3-17.8c-1.9 0-4.9 1-8.3 5.5-3.1 4.2-2.1 7.7-.1 9.5 1.8 1.7 4.9 2.4 7.2.6l.3-2.7c-.9 0-2.6-.1-3.5-1.2-.7-.9-.7-2.1-.1-3.6.7-1.8 1.7-3 3-3.5.9-.4 1.8-.2 2.3-.1l1.3-4.2c-.4 0-1.2-.3-2.1-.3z"/><path class="st0" d="M680.4 152.7s-4 4.2 1.2 6.9c3.9 2 6.8 0 6.8 0s3 2.7 4.8-.5c.5-.9 4.3 1.2 5.4.1 4.2-4.5-.5-7.6-.5-7.6l-17.7 1.1z"/><path d="M690.9 161.2c-1.1 0-2.1-.6-2.6-1-.9.5-3.6 1.6-7-.2-1.7-.9-2.7-2-2.9-3.4-.4-2.3 1.5-4.2 1.5-4.3l.1-.2 18.2-1.2.2.1c.1.1 2.2 1.5 2.4 3.8.2 1.5-.5 3.1-1.9 4.6-.8.8-2.3.5-3.7.1-.6-.1-1.4-.3-1.7-.3-.6 1-1.3 1.6-2.2 1.7 0 .3-.2.3-.4.3zm-2.4-2.3l.3.3s1.3 1.1 2.5.9c.6-.1 1.1-.5 1.5-1.2.4-.8 1.5-.5 2.8-.2.9.2 2.3.5 2.7.2 1.2-1.3 1.7-2.5 1.6-3.7-.2-1.6-1.4-2.7-1.8-3l-17.3 1.1c-.4.5-1.4 1.8-1.1 3.3.2 1 1 1.9 2.3 2.6 3.5 1.8 6.1.1 6.2 0l.3-.3z"/><path class="st0" d="M720.7 149.3s-3.8 7 1.4 8.6 5.7-2.4 5.7-2.4 4.8 3.2 5.5-2.4c3.3.9 11.3-4.3.9-9.8l-13.5 6z"/><path d="M724.3 158.9c-.7 0-1.5-.1-2.4-.4-1.3-.4-2.3-1.2-2.7-2.4-1.2-2.9 1-6.8 1.1-7l.1-.2 13.8-6.1.2.1c5.8 3.1 5.7 6 5.2 7.4-.9 2.2-3.8 3.6-5.9 3.4-.3 1.5-.9 2.5-1.9 3-1.3.6-2.8 0-3.7-.4-.2.6-.6 1.4-1.5 1.9-.7.5-1.4.7-2.3.7zm-3.2-9.2c-.4.7-1.8 3.8-.9 6 .3.9 1 1.4 2.1 1.8 1.6.5 2.9.5 3.7-.1 1-.7 1.2-1.9 1.2-1.9l.1-.8.7.5s1.9 1.3 3.3.7c.7-.3 1.2-1.2 1.4-2.7l.1-.6.6.2c1.6.4 4.5-.8 5.2-2.7.7-1.9-.8-4-4.4-6l-13.1 5.6z"/><path class="st0" d="M663.6 95.7s-14.1 27.2-3.3 39.6c10.8 12.4 19.2 20.4 29.5 18.5 10.3-1.9 9.8-4.4 26-4 16.1.5 43.8-19.3 27.3-49.3l-79.5-4.8z"/><path d="M686.8 154.5c-3.9 0-7.8-1.4-11.9-4.3-5.1-3.5-10.2-9.1-15-14.7-4.5-5.2-5.4-13.8-2.5-24.9 2.2-8.3 5.7-15.2 5.7-15.2l.2-.3 80.1 4.8.1.3c8.3 15.1 5.1 26.5.9 33.4-6.8 11.2-19.9 17-28.6 16.7-10.7-.3-14 .7-18.1 2-2 .6-4.3 1.3-7.7 2-1.1.1-2.2.2-3.2.2zM664 96.2c-1.5 3-13 27.4-3.2 38.7 4.8 5.5 9.9 11 14.8 14.5s9.4 4.7 14.2 3.8c3.4-.6 5.6-1.3 7.6-1.9 4.2-1.3 7.6-2.4 18.5-2.1 8.5.2 21.1-5.3 27.7-16.2 4-6.6 7.1-17.5-.8-32L664 96.2z"/><path class="st1" d="M665 99.7s12.2 30.1 35.5 30.1 38.1-15.3 42.8-28.2L665 99.7z"/><path d="M700.5 130.4c-9.7 0-19-5.3-26.9-15.3-5.9-7.5-9.1-15.1-9.1-15.2-.1-.2 0-.4.1-.5.1-.1.3-.2.5-.2l78.3 1.9c.2 0 .3.1.4.2.1.1.1.3.1.5-2.6 7.1-7.9 14.1-14.6 19.2-8.2 6.2-18.2 9.4-28.8 9.4zm-34.6-30.1c.9 2.1 3.9 8.2 8.6 14.2 5.4 6.8 14.2 14.8 26 14.8 10.4 0 20.1-3.2 28-9.2 6.3-4.8 11.4-11.3 14-18l-76.6-1.8z"/><path class="st0" d="M663.2 94.6s12.8 33.6 41.4 30.6 49.1-26.8 34.5-39.6l-4-26.1-13.3-10.7-51 12.1-9.8 12.4 2.2 21.3z"/><path d="M701 125.9c-5.3 0-10.4-1.3-15.2-3.8-4.7-2.4-9.1-6.1-13-10.8-6.8-8-10-16.5-10.1-16.6v-.2L660.5 73l10-12.8L722 48l13.7 11 4 26.1c4.4 4 5.9 9.4 4 15.2-1.8 5.8-6.7 11.5-13.6 16.2-7.3 4.9-16.3 8.1-25.4 9.1-1.3.2-2.5.3-3.7.3zm-37.3-31.4c.3.8 3.5 8.7 9.9 16.2 3.9 4.6 8.2 8.1 12.7 10.5 5.7 3 11.8 4.1 18.2 3.4 9-1 17.8-4.1 25-8.9 6.7-4.5 11.4-10.1 13.2-15.6 1.7-5.5.4-10.4-3.9-14.2l-.1-.1-4-26.1-13-10.4-50.6 12-9.5 12.1 2.1 21.1z"/><path class="st2" d="M676.8 62.1s-7.4-8.8-10.2-6c-2.8 2.8-2.3 5.5-7.3 6.6-12.2 2.6.7 34-4 37 0 0 16.8-9.4 14.7-15.2-2.4-6.7.9-16.6.9-16.6l5.9-5.8z"/><path d="M655.4 100.2c-.2 0-.4-.1-.5-.3-.1-.2-.1-.6.2-.7 1.5-1 .6-6.9-.2-12.6-1.6-10.2-3.5-22.8 4.4-24.5 3.1-.6 3.9-1.9 4.9-3.6.5-.9 1.1-1.8 2.1-2.8.5-.5 1.1-.7 1.9-.7 1.5.1 3.5 1.2 5.9 3.5 1.8 1.6 3.1 3.2 3.1 3.3.2.2.2.5 0 .7l-5.6 5.6c-.4 1.1-3.1 10.1-.9 16.1 1 2.7-1.3 6.2-6.8 10.4-3.9 3.1-8.2 5.4-8.2 5.5-.1.1-.2.1-.3.1zm12.6-44c-.4 0-.7.1-1 .4-.9.9-1.4 1.8-2 2.6-1.1 1.7-2 3.3-5.6 4.1-6.9 1.5-5.1 13.5-3.6 23.3.8 5.5 1.4 9.5.9 11.7 5.2-3.1 14.2-9.6 12.8-13.6-1-2.9-1.2-6.6-.5-11.1.5-3.3 1.4-5.8 1.4-5.9 0-.1.1-.1.1-.2l5.4-5.4c-1.5-1.9-5.4-5.8-7.9-5.9.1 0 .1 0 0 0zM682.8 134.6c-.1 0-.2 0-.2-.1-8.1-4.2-12.7-13.8-15-21.2-2.5-7.9-3.2-14.9-3.2-15 0-.3.2-.6.5-.6s.6.2.6.5 2.6 27.6 17.6 35.3c.3.1.4.5.2.7-.1.3-.3.4-.5.4zM736.6 124.5c-.1 0-.3-.1-.4-.2-.2-.2-.2-.6 0-.8 7.7-6.8 8.1-19.3 8.1-19.4 0-.3.3-.5.5-.5.3 0 .5.3.5.5 0 .5-.5 13.1-8.5 20.2.1.2-.1.2-.2.2z"/><path class="st0" d="M657.3 129.9s-4.9 8.2 0 11.8 7.7-1.1 7.7-1.1l-7.7-10.7z"/><path d="M660.9 143.6c-1.3 0-2.6-.5-3.9-1.5-2.2-1.6-2.9-4.3-2-7.8.6-2.5 1.8-4.6 1.9-4.7l.4-.7 8.4 11.6-.2.3c-.1.1-1.3 2.2-3.7 2.7-.3 0-.6.1-.9.1zm-3.5-12.7c-1 2-3.4 7.7.3 10.4 1.4 1 2.7 1.4 4 1.2 1.4-.3 2.4-1.4 2.8-1.9l-7.1-9.7z"/><path class="st2" d="M704.8 95.7s5.4 6 16.6 2.7-.8 14.5-7 17.9c-6.3 3.4-26.5 5.8-36.5-8.8-6.1-9 16.6-1.2 19.4-10.5"/><path d="M701.6 119.3c-8.3 0-18.1-2.7-24.1-11.6-1.1-1.6-1.4-2.8-.9-3.8.9-1.8 3.9-2 7.8-2.2 5.2-.3 11.2-.7 12.4-5 .1-.3.4-.4.7-.4.3.1.4.4.4.7-1.5 5-8.1 5.4-13.4 5.7-3.3.2-6.3.4-6.9 1.6-.3.6 0 1.5.8 2.7 9.7 14.3 29.5 12 35.8 8.7 2.2-1.2 5.4-4.4 7.9-8 2.6-3.7 3.9-7.1 3.3-8.4-.5-1.1-2.3-.8-3.8-.4-11.4 3.4-16.9-2.6-17.2-2.8-.2-.2-.2-.6 0-.8.2-.2.6-.2.8 0 .2.2 5.3 5.7 16.1 2.5 1.9-.6 4.3-.9 5.1 1 1.6 4-7 15.3-11.7 17.8-2.7 1.5-7.6 2.7-13.1 2.7z"/><path class="st2" d="M678.8 107.8s7.9 5.7 15.8 6c7.9.3 24.3.8 29.6-10.4l-45.4 4.4z"/><path class="st3" d="M715.1 109.4c7.9 9.8-6.6 13.8-16.9 12.9-10.3-1-4.3-11.1-4.3-11.1l4.7-7.8 6.1-1.5 10.4 7.5z"/><path d="M701.2 123c-1.1 0-2.1 0-3.1-.1-3-.3-5-1.4-5.9-3.2-1.8-3.5 1.1-8.5 1.3-8.7l4.8-8 6.6-1.6 10.6 7.8v.1c2.4 3 3 5.7 1.8 8-2.1 3.7-9.3 5.7-16.1 5.7zm-2.2-19.2l-4.6 7.6s-2.7 4.7-1.2 7.7c.8 1.5 2.5 2.4 5.1 2.6 7 .7 16-1.1 18.1-5.1 1-1.9.5-4.2-1.6-6.8l-10-7.4-5.8 1.4z"/><path class="st2" d="M718.8 85.6c-1.3-1.5-5.3-9.7.6-11.5 5.9-1.8 9.1-.6 10 1.2 2.5 4.9-1.1 9.2-1.9 9.7l-8.7.6z"/><path class="st4" d="M703 119.7c-2.1-6.1-.7-14-.7-14.3l1.1.2c0 .1-1.4 7.9.6 13.7l-1 .4z"/><path class="st2" d="M701.8 99.8s3.4 12.7-7.9 11.4c-11.2-1.2-16-3.8-16-3.8"/><path d="M695.4 111.8c-.5 0-1 0-1.5-.1-11.1-1.2-16-3.8-16.2-3.9-.3-.1-.4-.5-.2-.7.1-.3.5-.4.7-.2 0 0 4.9 2.6 15.8 3.8 2.9.3 5-.3 6.3-1.8 2.6-3.1 1.1-8.9 1.1-9-.1-.3.1-.6.4-.7.3-.1.6.1.7.4.1.3 1.7 6.5-1.3 10-1.5 1.5-3.4 2.2-5.8 2.2z"/><path class="st2" d="M685.2 88.4s4.8-13.3-8.4-11.8c-8.9 1-1.3 11.4-1.3 11.4l9.7.4zM725.8 101.5c-9.1 10.9-21.9 11.9-23.5 1.9l-.6-5 3.6-2.2s5 5.2 16.1 2.2c7.8-2.2 4.4 3.1 4.4 3.1z"/><path d="M710.3 110.9c-.9 0-1.9-.1-2.7-.4-3.2-.9-5.3-3.4-5.8-7.1l-.6-5c0-.2.1-.4.2-.5l3.6-2.2c.2-.1.5-.1.7.1 0 0 5 5 15.6 2.1 2.9-.8 4.7-.7 5.5.3 1 1.3-.3 3.4-.5 3.6v.1c-4.8 5.6-10.9 9-16 9zm-8-12.3l.6 4.7c.5 3.3 2.3 5.4 5.1 6.2 5.1 1.4 12.1-1.9 17.5-8.3.3-.5.9-1.8.5-2.4-.2-.3-1-.8-4.3.1-9.9 2.7-15-1-16.3-2.1l-3.1 1.8z"/><circle cx="680.2" cy="85.6" r="5"/><path d="M680.2 91.1c-3.1 0-5.6-2.5-5.6-5.6 0-3.1 2.5-5.6 5.6-5.6 3.1 0 5.6 2.5 5.6 5.6 0 3.1-2.5 5.6-5.6 5.6zm0-10c-2.5 0-4.5 2-4.5 4.5s2 4.5 4.5 4.5 4.5-2 4.5-4.5-2-4.5-4.5-4.5z"/><circle cx="723" cy="81.9" r="5"/><path d="M723 87.5c-3.1 0-5.6-2.5-5.6-5.6 0-3.1 2.5-5.6 5.6-5.6 3.1 0 5.6 2.5 5.6 5.6-.1 3.1-2.5 5.6-5.6 5.6zm0-10.1c-2.5 0-4.5 2-4.5 4.5s2 4.5 4.5 4.5 4.5-2 4.5-4.5-2-4.5-4.5-4.5zM680.8 91.1c-.2 0-.5-.2-.5-.4-.1-.3.1-.6.4-.6 0 0 2.3-.5 4.4-2 2.7-1.9 4-4.4 3.7-7.5-.3-2.7-1.6-4.6-4-5.8-1.8-.9-3.5-1-3.5-1-.3 0-.5-.3-.5-.6s.3-.5.6-.5c.1 0 7.8.5 8.5 7.7.9 8.3-8.8 10.6-8.9 10.6-.1.1-.1.1-.2.1z"/><path class="st2" d="M732.6 87.3s9.6 3.1 15-9.7C753 64.8 760.7 60 738 53.3c-22.7-6.7 6.8 12.9-5.4 34z"/><path d="M735.2 88.2c-1.6 0-2.7-.3-2.8-.4-.2 0-.3-.2-.3-.3-.1-.2 0-.3 0-.5 6.1-10.5 1.5-20.7-1.5-27.4-1.7-3.7-2.7-6.1-1.6-7.4 1-1.2 3.7-1 9.1.6 9.3 2.8 13.9 5.3 15.3 8.5 1.3 3-.4 6.4-2.6 10.7-.9 1.7-1.9 3.7-2.8 5.8-1.6 3.8-4.6 8.5-9.9 9.9-1 .4-2 .5-2.9.5zm-1.8-1.3c2.2.4 9.3.9 13.7-9.5.9-2.2 1.9-4.1 2.8-5.9 2.1-4.2 3.7-7.2 2.5-9.8-1.2-2.8-5.7-5.2-14.6-7.9-4.6-1.4-7.3-1.7-8-.9-.7.8.4 3.3 1.8 6.3 3.1 6.8 7.7 16.9 1.8 27.7zM722.3 87.5c-2 0-7.3-.6-10-6.7-.9-2.1-1-4.2-.3-6.1 1.5-3.6 5.5-5.3 5.7-5.4.3-.1.6 0 .7.3.1.3 0 .6-.3.7 0 0-3.8 1.6-5.1 4.8-.6 1.6-.6 3.4.3 5.2 1.3 2.9 3.3 4.8 6 5.6 2 .6 3.6.4 3.7.4.3 0 .6.2.6.5s-.2.6-.5.6c-.1.1-.3.1-.8.1z"/><g><path class="st5" d="M676.2 48.1s-4.1-21.1 10.3-29.6c14.5-8.5 25.4 4 25 11.7 0 0-4.8-7.7-11.3 2.7 0 0 5.9-3.5 10.4 2.9 0 0 7.2-1.6 9.9 6.4 0 0 14.4 4.3 11.7 19.2 0 0-4.7-10.8-15.3-8-10.6 2.9-8.4 6.4-11.9 14.7s-5.9 10-15.3 1.2c-9.5-8.8-19.6-5.1-20.4 7.5.1.1-9.2-27.4 6.9-28.7z"/><path d="M669.4 77.4c-.2 0-.4-.1-.5-.4-.2-.7-5.7-17.1-.3-25.2 1.6-2.4 4-3.8 7.1-4.2-.2-1.5-.8-6-.2-11.2 1-8.5 4.8-14.8 10.9-18.4 8.4-5 14.9-2.5 18-.6 4.8 2.9 8.1 8.3 7.8 12.9 0 .2-.2.4-.4.5-.2.1-.5 0-.6-.2 0 0-1.6-2.5-4-2.5-1.8 0-3.6 1.3-5.4 3.8.6-.2 1.3-.3 2.1-.3 1.9-.1 4.7.6 7.1 3.8 2.7-.5 7.9.4 10 6.6.9.3 4 1.5 6.8 4 3.1 2.8 6.4 7.7 5 15.7 0 .2-.2.4-.5.4-.2 0-.5-.1-.6-.3-.2-.4-4.7-10.4-14.7-7.6-7.7 2.1-8.4 4.4-9.7 9-.5 1.5-1 3.3-1.8 5.3-1.8 4.2-3.3 6.7-5.6 7.2-2.4.5-5.5-1.2-10.5-5.9-4.5-4.1-9.3-5.6-13.1-4.1-3.7 1.5-6 5.6-6.3 11.2-.1.3-.3.5-.6.5zm10-13.4c3.4 0 7.2 1.7 10.7 5 4.7 4.4 7.6 6 9.6 5.6 1.9-.4 3.3-2.8 4.9-6.6.8-2 1.4-3.7 1.8-5.2 1.4-4.7 2.2-7.5 10.5-9.7 8.4-2.3 13.3 3.9 15.1 6.8.5-5.3-1.1-9.7-4.9-13.1-3.1-2.8-6.6-3.9-6.7-3.9-.2-.1-.3-.2-.4-.3-2.4-7.4-9-6.1-9.2-6-.2 0-.4 0-.6-.2-1.8-2.5-3.9-3.7-6.4-3.6-1.9.1-3.2.9-3.3.9-.2.1-.5.1-.7-.1-.2-.2-.2-.4-.1-.7 2.3-3.8 4.8-5.7 7.2-5.7 1.7 0 3.1.9 3.9 1.8-.5-3.8-3.4-8-7.3-10.4-5-3-11-2.8-16.9.6-5.8 3.4-9.3 9.4-10.3 17.6-.8 6.2.2 11.4.3 11.5 0 .1 0 .3-.1.4-.1.1-.2.2-.4.2-3.1.2-5.4 1.5-6.9 3.8-3.9 5.8-1.6 16.8-.3 21.8.8-4.7 3.2-8.1 6.7-9.5 1.3-.7 2.6-1 3.8-1z"/></g><g><ellipse transform="rotate(169.052 701.2 96.54)" class="st2" cx="701.2" cy="96.5" rx="4.6" ry="3.3"/><path d="M700.6 100.4c-.9 0-1.7-.2-2.4-.5-1.1-.5-1.9-1.4-2.1-2.4-.2-1 .2-2.1 1-3 .8-.9 2-1.5 3.3-1.7 1.3-.3 2.6-.1 3.7.4s1.9 1.4 2.1 2.4c.4 2.1-1.5 4.2-4.3 4.7-.4.1-.9.1-1.3.1zm1.2-6.7c-.4 0-.7 0-1.1.1-1.1.2-2.1.7-2.7 1.4-.6.6-.9 1.4-.7 2.1.1.7.7 1.3 1.5 1.6.9.4 2 .5 3.1.3 2.2-.4 3.8-2 3.5-3.5-.1-.7-.7-1.3-1.5-1.6-.7-.2-1.4-.4-2.1-.4z"/></g><circle class="st6" cx="678.2" cy="83" r=".9"/><circle class="st6" cx="699.5" cy="95.6" r=".6"/><circle class="st6" cx="720.3" cy="80.6" r=".9"/><g><path class="st1" d="M718.4 125.4s-8.1 5-4.3 14.7c0-.1 6.5-.3 4.3-14.7z"/><path d="M713.8 140.6l-.1-.4c-3.9-9.9 4.4-15.3 4.5-15.3l.7-.4.1.8c1 6.4.4 11-1.7 13.5-1.4 1.7-3 1.8-3.1 1.8h-.4zm4.2-14.3c-1.8 1.4-6.2 5.8-3.5 13.1.4-.1 1.2-.5 2-1.4 1.2-1.5 2.4-4.7 1.5-11.7z"/></g><g><path class="st1" d="M721.4 140.2s5.7-3-2.5-15.1c0 .1-5.1 8.1 2.5 15.1"/><path d="M721.3 140.9l-.3-.3c-7.8-7.3-2.6-15.7-2.6-15.7l.4-.7.5.7c3.6 5.4 5.1 9.7 4.3 12.9-.5 2.2-2 2.9-2 3l-.3.1zm-2.3-14.7c-1 2-3.1 7.9 2.5 13.4.4-.3.9-.9 1.2-2.1.4-1.9.1-5.4-3.7-11.3z"/></g><ellipse transform="rotate(163.496 699.313 98.36)" cx="699.3" cy="98.4" rx=".8" ry="1.1"/><ellipse cx="703.5" cy="97.7" rx=".8" ry="1.1"/><g><path class="st1" d="M720.3 120.7c-3.5 0-6.6 1.9-5.1 4.1s4 3.8 6 2.8-.9-6.9-.9-6.9z"/><path d="M719.9 128.5c-1.6 0-3.5-1-5.1-3.3-.6-.8-.6-1.7-.2-2.5.8-1.4 3.1-2.5 5.8-2.5h.3l.1.3c0 .1.8 1.5 1.2 3.1.7 2.4.5 3.9-.6 4.5-.4.2-.9.4-1.5.4zm.1-7.2c-2.1.1-3.9.9-4.5 1.9-.2.4-.2.9.2 1.4 1.3 1.9 3.5 3.5 5.3 2.6 1-.6 0-3.8-1-5.9z"/></g><path class="st6" d="M693.5 19.1s-18.9 6.2-14.4 29.7c0 0-.3-9.2 3.7-14.8 0 0-1.5 13.4 1 20 0 0-1.2-10.8 4.3-21 0 0-2.6 6.2 2.1 15.8 0 0-1.5-7.5 3.4-12.3 0 0-2 6.9 3.1 12.3 0 0-2-22.9 10.1-23.1 0 0-6.8-1.6-11.7 5.7 0 0-2-8.2 6.5-12.3 0 0-7 .2-13.1 11.6-.1 0-2.1-7.5 5-11.6zM706.7 36.5s-6.4 2.5-4.2 14c0 0 .8-4.4 3.3-7 0 0-1.4 4.9 1.6 10.4 0 0-.5-2.1 2-3.6 0 0-.3 2.1 1.1 3.6 0 0-1.1-10.8 7.5-13.3 0 0-6.6-.4-9.3 4.6 0 0 .6-6.2 4.4-7.1 0 0-5.2-1.6-8.9 4.6 0 0 .4-3.4 2.5-6.2z"/><path class="st7" d="M698.5 118.6s6.2 2 11.9-.5c0 0-5.5 5.7-11.9.5z"/><path class="st6" d="M676.3 87.1s1.1 3.1 3.8 3.1c2.7 0 3.9-2.6 3.9-2.6s-1.3 2.2-3.9 2.2c-2.5 0-3.8-2.7-3.8-2.7zM718.9 83.3s1.2 3.3 4 3.3 4.1-2.8 4.1-2.8-1.4 2.3-4.1 2.3-4-2.8-4-2.8z"/></g><g><path class="st0" d="M783.7 117.5s-5.5.7-3.7-4c1.9-4.8 5.2-3.1 5.2-3.1l1.6-5.1s-5.1-3.4-11.4 5c-6.3 8.4 3.2 15 8 10.8l.3-3.6z"/><path d="M779.8 122.8c-1.7 0-3.4-.7-4.8-2-1.3-1.2-2.1-2.9-2.2-4.7-.1-2 .6-4.2 2.2-6.3 6.5-8.7 11.9-5.3 12.2-5.1l.3.2-1.9 6.1-.6-.3s-1-.5-2.1-.1c-1 .4-1.8 1.3-2.3 2.8-.4 1.1-.5 2 0 2.5.7.9 2.5.9 3.2.8l.7-.1-.4 4.4-.2.1c-1.3 1.2-2.7 1.7-4.1 1.7zM784 105c-1.9 0-4.9 1-8.3 5.5-3.1 4.2-2.1 7.7-.1 9.5 1.8 1.7 4.9 2.4 7.2.6l.3-2.7c-.9 0-2.6-.1-3.5-1.2-.7-.9-.7-2.1-.1-3.6.7-1.8 1.7-3 3-3.5.9-.4 1.8-.2 2.3-.1l1.3-4.2c-.4 0-1.1-.3-2.1-.3z"/><path class="st0" d="M807.6 152.7s-4 4.2 1.2 6.9c3.9 2 6.8 0 6.8 0s3 2.7 4.8-.5c.5-.9 4.3 1.2 5.4.1 4.2-4.5-.5-7.6-.5-7.6l-17.7 1.1z"/><path d="M818.1 161.2c-1.1 0-2.1-.6-2.6-1-.9.5-3.6 1.6-7-.2-1.7-.9-2.7-2-2.9-3.4-.4-2.3 1.5-4.2 1.5-4.3l.1-.2 18.2-1.2.2.1c.1.1 2.2 1.5 2.4 3.8.2 1.5-.5 3.1-1.9 4.6-.8.8-2.3.5-3.7.1-.6-.1-1.4-.3-1.7-.3-.6 1-1.3 1.6-2.2 1.7-.1.3-.2.3-.4.3zm-2.5-2.3l.3.3s1.3 1.1 2.5.9c.6-.1 1.1-.5 1.5-1.2.4-.8 1.5-.5 2.8-.2.9.2 2.3.5 2.7.2 1.2-1.3 1.7-2.5 1.6-3.7-.2-1.6-1.4-2.7-1.8-3l-17.3 1.1c-.4.5-1.4 1.8-1.1 3.3.2 1 1 1.9 2.3 2.6 3.5 1.8 6.1.1 6.2 0l.3-.3z"/><path class="st0" d="M847.9 149.3s-3.8 7 1.4 8.6 5.7-2.4 5.7-2.4 4.8 3.2 5.5-2.4c3.3.9 11.3-4.3.9-9.8l-13.5 6z"/><path d="M851.5 158.9c-.7 0-1.5-.1-2.4-.4-1.3-.4-2.3-1.2-2.7-2.4-1.2-2.9 1-6.8 1.1-7l.1-.2 13.8-6.1.2.1c5.8 3.1 5.7 6 5.2 7.4-.9 2.2-3.8 3.6-5.9 3.4-.3 1.5-.9 2.5-1.9 3-1.3.6-2.8 0-3.7-.4-.2.6-.6 1.4-1.5 1.9-.7.5-1.4.7-2.3.7zm-3.2-9.2c-.4.7-1.8 3.8-.9 6 .3.9 1 1.4 2.1 1.8 1.6.5 2.9.5 3.7-.1 1-.7 1.2-1.9 1.2-1.9l.1-.8.7.5s1.9 1.3 3.3.7c.7-.3 1.2-1.2 1.4-2.7l.1-.6.6.2c1.6.4 4.5-.8 5.2-2.7.7-1.9-.8-4-4.4-6l-13.1 5.6z"/><path class="st0" d="M790.8 95.7s-14.1 27.2-3.3 39.6c10.8 12.4 19.2 20.4 29.5 18.5 10.3-1.9 9.8-4.4 26-4 16.1.5 43.8-19.3 27.3-49.3l-79.5-4.8z"/><path d="M814 154.5c-3.9 0-7.8-1.4-11.9-4.3-5.1-3.5-10.2-9.1-15-14.7-4.5-5.2-5.4-13.8-2.5-24.9 2.2-8.3 5.7-15.2 5.7-15.2l.2-.3 80.1 4.8.1.3c8.3 15.1 5.1 26.5.9 33.4-6.8 11.2-19.9 17-28.6 16.7-10.7-.3-14 .7-18.1 2-2 .6-4.3 1.3-7.7 2-1.2.1-2.2.2-3.2.2zm-22.9-58.3c-1.5 3-13 27.4-3.2 38.7 4.8 5.5 9.9 11 14.8 14.5s9.4 4.7 14.2 3.8c3.4-.6 5.6-1.3 7.6-1.9 4.2-1.3 7.6-2.4 18.5-2.1 8.5.2 21.1-5.3 27.7-16.2 4-6.6 7.1-17.5-.8-32l-78.8-4.8z"/><path class="st1" d="M792.2 99.7s12.2 30.1 35.5 30.1 38.1-15.3 42.8-28.2l-78.3-1.9z"/><path d="M827.7 130.4c-9.7 0-19-5.3-26.9-15.3-5.9-7.5-9.1-15.1-9.1-15.2-.1-.2 0-.4.1-.5.1-.1.3-.2.5-.2l78.3 1.9c.2 0 .3.1.4.2.1.1.1.3.1.5-2.6 7.1-7.9 14.1-14.6 19.2-8.3 6.2-18.2 9.4-28.8 9.4zm-34.6-30.1c.9 2.1 3.9 8.2 8.6 14.2 5.4 6.8 14.2 14.8 26 14.8 10.4 0 20.1-3.2 28-9.2 6.3-4.8 11.4-11.3 14-18l-76.6-1.8z"/><path class="st0" d="M790.4 94.6s12.8 33.6 41.4 30.6 49.1-26.8 34.5-39.6l-4-26.1L849 48.8l-51 12.1-9.8 12.4 2.2 21.3z"/><path d="M828.1 125.9c-5.3 0-10.4-1.3-15.2-3.8-4.7-2.4-9.1-6.1-13-10.8-6.8-8-10-16.5-10.1-16.6v-.2L787.6 73l10-12.8L849.1 48l13.7 11 4 26.1c4.4 4 5.9 9.4 4 15.2-1.8 5.8-6.7 11.5-13.6 16.2-7.3 4.9-16.3 8.1-25.4 9.1-1.2.2-2.5.3-3.7.3zm-37.2-31.4c.3.8 3.5 8.7 9.9 16.2 3.9 4.6 8.2 8.1 12.7 10.5 5.7 3 11.8 4.1 18.2 3.4 9-1 17.8-4.1 25-8.9 6.7-4.5 11.4-10.1 13.2-15.6 1.7-5.5.4-10.4-3.9-14.2l-.1-.1-4-26.1-13-10.4-50.6 12-9.5 12.1 2.1 21.1z"/><path class="st2" d="M804 62.1s-7.4-8.8-10.2-6c-2.8 2.8-2.3 5.5-7.3 6.6-12.2 2.6.7 34-4 37 0 0 16.8-9.4 14.7-15.2-2.4-6.7.9-16.6.9-16.6l5.9-5.8z"/><path d="M782.6 100.2c-.2 0-.4-.1-.5-.3-.1-.2-.1-.6.2-.7 1.5-1 .6-6.9-.2-12.6-1.6-10.2-3.5-22.8 4.4-24.5 3.1-.6 3.9-1.9 4.9-3.6.5-.9 1.1-1.8 2.1-2.8.5-.5 1.1-.7 1.9-.7 1.5.1 3.5 1.2 5.9 3.5 1.8 1.6 3.1 3.2 3.1 3.3.2.2.2.5 0 .7l-5.6 5.6c-.4 1.1-3.1 10.1-.9 16.1 1 2.7-1.3 6.2-6.8 10.4-3.9 3.1-8.2 5.4-8.2 5.5-.1.1-.2.1-.3.1zm12.6-44c-.4 0-.7.1-1 .4-.9.9-1.4 1.8-2 2.6-1.1 1.7-2 3.3-5.6 4.1-6.9 1.5-5.1 13.5-3.6 23.3.8 5.5 1.4 9.5.9 11.7 5.2-3.1 14.2-9.6 12.8-13.6-1-2.9-1.2-6.6-.5-11.1.5-3.3 1.4-5.8 1.4-5.9 0-.1.1-.1.1-.2l5.4-5.4c-1.5-1.9-5.4-5.8-7.9-5.9.1 0 .1 0 0 0zM810 134.6c-.1 0-.2 0-.2-.1-8.1-4.2-12.7-13.8-15-21.2-2.5-7.9-3.2-14.9-3.2-15 0-.3.2-.6.5-.6s.6.2.6.5 2.6 27.6 17.6 35.3c.3.1.4.5.2.7-.1.3-.3.4-.5.4zM863.8 124.5c-.1 0-.3-.1-.4-.2-.2-.2-.2-.6 0-.8 7.7-6.8 8.1-19.3 8.1-19.4 0-.3.3-.5.5-.5.3 0 .5.3.5.5 0 .5-.5 13.1-8.5 20.2 0 .2-.1.2-.2.2z"/><path class="st0" d="M784.5 129.9s-4.9 8.2 0 11.8 7.7-1.1 7.7-1.1l-7.7-10.7z"/><path d="M788.1 143.6c-1.3 0-2.6-.5-3.9-1.5-2.2-1.6-2.9-4.3-2-7.8.6-2.5 1.8-4.6 1.9-4.7l.4-.7 8.4 11.6-.2.3c-.1.1-1.3 2.2-3.7 2.7-.3 0-.6.1-.9.1zm-3.5-12.7c-1 2-3.4 7.7.3 10.4 1.4 1 2.7 1.4 4 1.2 1.4-.3 2.4-1.4 2.8-1.9l-7.1-9.7z"/><path class="st2" d="M832 95.7s5.4 6 16.6 2.7-.8 14.5-7 17.9c-6.3 3.4-26.5 5.8-36.5-8.8-6.1-9 16.6-1.2 19.4-10.5"/><path d="M828.8 119.3c-8.3 0-18.1-2.7-24.1-11.6-1.1-1.6-1.4-2.8-.9-3.8.9-1.8 3.9-2 7.8-2.2 5.2-.3 11.2-.7 12.4-5 .1-.3.4-.4.7-.4.3.1.4.4.4.7-1.5 5-8.1 5.4-13.4 5.7-3.3.2-6.3.4-6.9 1.6-.3.6 0 1.5.8 2.7 9.7 14.3 29.5 12 35.8 8.7 2.2-1.2 5.4-4.4 7.9-8 2.6-3.7 3.9-7.1 3.3-8.4-.5-1.1-2.3-.8-3.8-.4-11.4 3.4-16.9-2.6-17.2-2.8-.2-.2-.2-.6 0-.8.2-.2.6-.2.8 0 .2.2 5.3 5.7 16.1 2.5 1.9-.6 4.3-.9 5.1 1 1.6 4-7 15.3-11.7 17.8-2.7 1.5-7.6 2.7-13.1 2.7z"/><path class="st2" d="M805.9 107.8s7.9 5.7 15.8 6c7.9.3 24.3.8 29.6-10.4l-45.4 4.4z"/><path class="st3" d="M842.3 109.4c7.9 9.8-6.6 13.8-16.9 12.9-10.3-1-4.3-11.1-4.3-11.1l4.7-7.8 6.1-1.5 10.4 7.5z"/><path d="M828.4 123c-1.1 0-2.1 0-3.1-.1-3-.3-5-1.4-5.9-3.2-1.8-3.5 1.1-8.5 1.3-8.7l4.8-8 6.6-1.6 10.6 7.8v.1c2.4 3 3 5.7 1.8 8-2.1 3.7-9.3 5.7-16.1 5.7zm-2.3-19.2l-4.6 7.6s-2.7 4.7-1.2 7.7c.8 1.5 2.5 2.4 5.1 2.6 7 .7 16-1.1 18.1-5.1 1-1.9.5-4.2-1.6-6.8l-10-7.4-5.8 1.4z"/><path class="st2" d="M846 85.6c-1.3-1.5-5.3-9.7.6-11.5 5.9-1.8 9.1-.6 10 1.2 2.5 4.9-1.1 9.2-1.9 9.7l-8.7.6z"/><path class="st4" d="M830.2 119.7c-2.1-6.1-.7-14-.7-14.3l1.1.2c0 .1-1.4 7.9.6 13.7l-1 .4z"/><path class="st2" d="M829 99.8s3.4 12.7-7.9 11.4c-11.2-1.2-16-3.8-16-3.8"/><path d="M822.6 111.8c-.5 0-1 0-1.5-.1-11.1-1.2-16-3.8-16.2-3.9-.3-.1-.4-.5-.2-.7.1-.3.5-.4.7-.2 0 0 4.9 2.6 15.8 3.8 2.9.3 5-.3 6.3-1.8 2.6-3.1 1.1-8.9 1.1-9-.1-.3.1-.6.4-.7.3-.1.6.1.7.4.1.3 1.7 6.5-1.3 10-1.5 1.5-3.4 2.2-5.8 2.2z"/><path class="st2" d="M812.4 88.4s4.8-13.3-8.4-11.8c-8.9 1-1.3 11.4-1.3 11.4l9.7.4zM853 101.5c-9.1 10.9-21.9 11.9-23.5 1.9l-.6-5 3.6-2.2s5 5.2 16.1 2.2c7.8-2.2 4.4 3.1 4.4 3.1z"/><path d="M837.5 110.9c-.9 0-1.9-.1-2.7-.4-3.2-.9-5.3-3.4-5.8-7.1l-.6-5c0-.2.1-.4.2-.5l3.6-2.2c.2-.1.5-.1.7.1 0 0 5 5 15.6 2.1 2.9-.8 4.7-.7 5.5.3 1 1.3-.3 3.4-.5 3.6v.1c-4.9 5.6-10.9 9-16 9zm-8.1-12.3l.6 4.7c.5 3.3 2.3 5.4 5.1 6.2 5.1 1.4 12.1-1.9 17.5-8.3.3-.5.9-1.8.5-2.4-.2-.3-1-.8-4.3.1-9.9 2.7-15-1-16.3-2.1l-3.1 1.8z"/><circle cx="807.4" cy="85.6" r="5"/><path d="M807.4 91.1c-3.1 0-5.6-2.5-5.6-5.6 0-3.1 2.5-5.6 5.6-5.6 3.1 0 5.6 2.5 5.6 5.6-.1 3.1-2.6 5.6-5.6 5.6zm0-10c-2.5 0-4.5 2-4.5 4.5s2 4.5 4.5 4.5 4.5-2 4.5-4.5-2-4.5-4.5-4.5z"/><circle cx="850.2" cy="81.9" r="5"/><path d="M850.2 87.5c-3.1 0-5.6-2.5-5.6-5.6 0-3.1 2.5-5.6 5.6-5.6 3.1 0 5.6 2.5 5.6 5.6-.1 3.1-2.6 5.6-5.6 5.6zm0-10.1c-2.5 0-4.5 2-4.5 4.5s2 4.5 4.5 4.5 4.5-2 4.5-4.5-2.1-4.5-4.5-4.5zM808 91.1c-.2 0-.5-.2-.5-.4-.1-.3.1-.6.4-.6 0 0 2.3-.5 4.4-2 2.7-1.9 4-4.4 3.7-7.5-.3-2.7-1.6-4.6-4-5.8-1.8-.9-3.5-1-3.5-1-.3 0-.5-.3-.5-.6s.3-.5.6-.5c.1 0 7.8.5 8.5 7.7.9 8.3-8.8 10.6-8.9 10.6-.1.1-.2.1-.2.1z"/><path class="st2" d="M859.8 87.3s9.6 3.1 15-9.7c5.4-12.8 13.1-17.6-9.6-24.3-22.7-6.7 6.8 12.9-5.4 34z"/><path d="M862.4 88.2c-1.6 0-2.7-.3-2.8-.4-.2 0-.3-.2-.3-.3-.1-.2 0-.3 0-.5 6.1-10.5 1.5-20.7-1.5-27.4-1.7-3.7-2.7-6.1-1.6-7.4 1-1.2 3.7-1 9.1.6 9.3 2.8 13.9 5.3 15.3 8.5 1.3 3-.4 6.4-2.6 10.7-.9 1.7-1.9 3.7-2.8 5.8-1.6 3.8-4.6 8.5-9.9 9.9-1 .4-2 .5-2.9.5zm-1.8-1.3c2.2.4 9.3.9 13.7-9.5.9-2.2 1.9-4.1 2.8-5.9 2.1-4.2 3.7-7.2 2.5-9.8-1.2-2.8-5.7-5.2-14.6-7.9-4.6-1.4-7.3-1.7-8-.9-.7.8.4 3.3 1.8 6.3 3.1 6.8 7.7 16.9 1.8 27.7zM849.5 87.5c-2 0-7.3-.6-10-6.7-.9-2.1-1-4.2-.3-6.1 1.5-3.6 5.5-5.3 5.7-5.4.3-.1.6 0 .7.3.1.3 0 .6-.3.7 0 0-3.8 1.6-5.1 4.8-.6 1.6-.6 3.4.3 5.2 1.3 2.9 3.3 4.8 6 5.6 2 .6 3.6.4 3.7.4.3 0 .6.2.6.5s-.2.6-.5.6c-.1.1-.4.1-.8.1z"/><g><path class="st5" d="M803.4 48.1s-4.1-21.1 10.3-29.6c14.5-8.5 25.4 4 25 11.7 0 0-4.8-7.7-11.3 2.7 0 0 5.9-3.5 10.4 2.9 0 0 7.2-1.6 9.9 6.4 0 0 14.4 4.3 11.7 19.2 0 0-4.7-10.8-15.3-8-10.6 2.9-8.4 6.4-11.9 14.7s-5.9 10-15.3 1.2c-9.5-8.8-19.6-5.1-20.4 7.5 0 .1-9.2-27.4 6.9-28.7z"/><path d="M796.5 77.4c-.2 0-.4-.1-.5-.4-.2-.7-5.7-17.1-.3-25.2 1.6-2.4 4-3.8 7.1-4.2-.2-1.5-.8-6-.2-11.2 1-8.5 4.8-14.8 10.9-18.4 8.4-5 14.9-2.5 18-.6 4.8 2.9 8.1 8.3 7.8 12.9 0 .2-.2.4-.4.5-.2.1-.5 0-.6-.2 0 0-1.6-2.5-4-2.5-1.8 0-3.6 1.3-5.4 3.8.6-.2 1.3-.3 2.1-.3 1.9-.1 4.7.6 7.1 3.8 2.7-.5 7.9.4 10 6.6.9.3 4 1.5 6.8 4 3.1 2.8 6.4 7.7 5 15.7 0 .2-.2.4-.5.4-.2 0-.5-.1-.6-.3-.2-.4-4.7-10.4-14.7-7.6-7.7 2.1-8.4 4.4-9.7 9-.5 1.5-1 3.3-1.8 5.3-1.8 4.2-3.3 6.7-5.6 7.2-2.4.5-5.5-1.2-10.5-5.9-4.5-4.1-9.3-5.6-13.1-4.1-3.7 1.5-6 5.6-6.3 11.2 0 .3-.2.5-.6.5.1 0 .1 0 0 0zM806.6 64c3.4 0 7.2 1.7 10.7 5 4.7 4.4 7.6 6 9.6 5.6 1.9-.4 3.3-2.8 4.9-6.6.8-2 1.4-3.7 1.8-5.2 1.4-4.7 2.2-7.5 10.5-9.7 8.4-2.3 13.3 3.9 15.1 6.8.5-5.3-1.1-9.7-4.9-13.1-3.1-2.8-6.6-3.9-6.7-3.9-.2-.1-.3-.2-.4-.3-2.4-7.4-9-6.1-9.2-6-.2 0-.4 0-.6-.2-1.8-2.5-3.9-3.7-6.4-3.6-1.9.1-3.2.9-3.3.9-.2.1-.5.1-.7-.1-.2-.2-.2-.4-.1-.7 2.3-3.8 4.8-5.7 7.2-5.7 1.7 0 3.1.9 3.9 1.8-.5-3.8-3.4-8-7.3-10.4-5-3-11-2.8-16.9.6-5.8 3.4-9.3 9.4-10.3 17.6-.8 6.2.2 11.4.3 11.5 0 .1 0 .3-.1.4-.1.1-.2.2-.4.2-3.1.2-5.4 1.5-6.9 3.8-3.9 5.8-1.6 16.8-.3 21.8.8-4.7 3.2-8.1 6.7-9.5 1.3-.7 2.5-1 3.8-1z"/></g><g><ellipse transform="rotate(169.052 828.382 96.537)" class="st2" cx="828.4" cy="96.5" rx="4.6" ry="3.3"/><path d="M827.8 100.4c-.9 0-1.7-.2-2.4-.5-1.1-.5-1.9-1.4-2.1-2.4-.2-1 .2-2.1 1-3 .8-.9 2-1.5 3.3-1.7 1.3-.3 2.6-.1 3.7.4s1.9 1.4 2.1 2.4c.4 2.1-1.5 4.2-4.3 4.7-.4.1-.9.1-1.3.1zm1.2-6.7c-.4 0-.7 0-1.1.1-1.1.2-2.1.7-2.7 1.4-.6.6-.9 1.4-.7 2.1.1.7.7 1.3 1.5 1.6.9.4 2 .5 3.1.3 2.2-.4 3.8-2 3.5-3.5-.1-.7-.7-1.3-1.5-1.6-.8-.2-1.4-.4-2.1-.4z"/></g><circle class="st6" cx="805.4" cy="83" r=".9"/><circle class="st6" cx="826.7" cy="95.6" r=".6"/><circle class="st6" cx="847.5" cy="80.6" r=".9"/><g><path class="st1" d="M845.5 125.4s-8.1 5-4.3 14.7c.1-.1 6.6-.3 4.3-14.7z"/><path d="M840.9 140.6l-.1-.4c-3.9-9.9 4.4-15.3 4.5-15.3l.7-.4.1.8c1 6.4.4 11-1.7 13.5-1.4 1.7-3 1.8-3.1 1.8h-.4zm4.2-14.3c-1.8 1.4-6.2 5.8-3.5 13.1.4-.1 1.2-.5 2-1.4 1.2-1.5 2.5-4.7 1.5-11.7z"/></g><g><path class="st1" d="M848.6 140.2s5.7-3-2.5-15.1c0 .1-5.1 8.1 2.5 15.1"/><path d="M848.5 140.9l-.3-.3c-7.8-7.3-2.6-15.7-2.6-15.7l.4-.7.5.7c3.6 5.4 5.1 9.7 4.3 12.9-.5 2.2-2 2.9-2 3l-.3.1zm-2.3-14.7c-1 2-3.1 7.9 2.5 13.4.4-.3.9-.9 1.2-2.1.4-1.9.1-5.4-3.7-11.3z"/></g><ellipse transform="rotate(163.496 826.492 98.358)" cx="826.5" cy="98.4" rx=".8" ry="1.1"/><ellipse cx="830.7" cy="97.7" rx=".8" ry="1.1"/><g><path class="st1" d="M847.5 120.7c-3.5 0-6.6 1.9-5.1 4.1s4 3.8 6 2.8-.9-6.9-.9-6.9z"/><path d="M847.1 128.5c-1.6 0-3.5-1-5.1-3.3-.6-.8-.6-1.7-.2-2.5.8-1.4 3.1-2.5 5.8-2.5h.3l.1.3c0 .1.8 1.5 1.2 3.1.7 2.4.5 3.9-.6 4.5-.4.2-1 .4-1.5.4zm.1-7.2c-2.1.1-3.9.9-4.5 1.9-.2.4-.2.9.2 1.4 1.3 1.9 3.5 3.5 5.3 2.6 1-.6 0-3.8-1-5.9z"/></g><path class="st6" d="M820.7 19.1s-18.9 6.2-14.4 29.7c0 0-.3-9.2 3.7-14.8 0 0-1.5 13.4 1 20 0 0-1.2-10.8 4.3-21 0 0-2.6 6.2 2.1 15.8 0 0-1.5-7.5 3.4-12.3 0 0-2 6.9 3.1 12.3 0 0-2-22.9 10.1-23.1 0 0-6.8-1.6-11.7 5.7 0 0-2-8.2 6.5-12.3 0 0-7 .2-13.1 11.6-.1 0-2.1-7.5 5-11.6zM833.9 36.5s-6.4 2.5-4.2 14c0 0 .8-4.4 3.3-7 0 0-1.4 4.9 1.6 10.4 0 0-.5-2.1 2-3.6 0 0-.3 2.1 1.1 3.6 0 0-1.1-10.8 7.5-13.3 0 0-6.6-.4-9.3 4.6 0 0 .6-6.2 4.4-7.1 0 0-5.2-1.6-8.9 4.6 0 0 .4-3.4 2.5-6.2z"/><path class="st7" d="M825.7 118.6s6.2 2 11.9-.5c0 0-5.5 5.7-11.9.5z"/><path class="st6" d="M803.4 87.1s1.1 3.1 3.8 3.1c2.7 0 3.9-2.6 3.9-2.6s-1.3 2.2-3.9 2.2c-2.5 0-3.8-2.7-3.8-2.7zM846.1 83.3s1.2 3.3 4 3.3 4.1-2.8 4.1-2.8-1.4 2.3-4.1 2.3-4-2.8-4-2.8z"/></g></svg>